{"glyphs":{"0":{"ha":819,"x_min":0,"x_max":0,"o":"m 410 -17 b 779 542 654 -17 779 243 b 410 1083 779 847 653 1083 b 40 542 167 1083 40 847 b 410 -17 40 243 165 -17 z m 410 163 b 221 542 267 163 221 353 b 410 904 221 728 268 904 b 599 542 551 904 599 728 b 410 163 599 353 553 163 z "},"1":{"ha":819,"x_min":0,"x_max":0,"o":"m 319 0 l 501 0 l 501 1069 l 135 1069 l 135 890 l 319 890 z "},"2":{"ha":819,"x_min":0,"x_max":0,"o":"m 14 0 l 721 0 l 721 181 l 375 181 l 646 539 b 714 743 692 600 714 672 b 378 1079 714 928 561 1079 b 42 743 194 1079 42 928 l 222 743 b 378 897 222 829 290 897 b 533 743 465 897 533 829 b 503 649 533 710 524 676 z "},"3":{"ha":819,"x_min":0,"x_max":0,"o":"m 617 604 b 688 796 661 656 688 722 b 396 1083 688 954 557 1083 b 104 796 235 1083 104 954 l 285 793 b 396 903 285 854 335 903 b 507 793 458 903 507 854 b 396 681 507 731 457 682 l 367 681 l 367 503 l 396 503 b 565 336 489 503 565 428 b 396 167 565 242 489 167 b 226 336 303 167 226 242 l 46 336 b 396 -14 46 142 203 -14 b 746 336 589 -14 746 142 b 617 604 746 444 696 540 z "},"4":{"ha":819,"x_min":0,"x_max":0,"o":"m 668 367 l 668 1069 l 450 1069 l 39 385 l 39 188 l 488 188 l 488 0 l 668 0 l 668 188 l 819 188 l 819 367 z m 215 367 l 488 835 l 488 367 z "},"5":{"ha":819,"x_min":0,"x_max":0,"o":"m 419 688 b 354 682 397 688 375 686 l 386 890 l 715 890 l 715 1069 l 238 1069 l 153 567 l 292 457 b 419 513 322 490 368 513 b 590 342 514 513 590 436 b 419 169 590 246 514 169 b 258 281 344 169 282 215 l 89 213 b 419 -17 139 78 268 -17 b 771 336 614 -17 771 140 b 419 688 771 531 614 688 z "},"6":{"ha":819,"x_min":0,"x_max":0,"o":"m 408 -17 b 757 339 604 -17 757 146 b 428 700 757 528 625 689 l 658 1069 l 451 1069 l 147 585 b 63 342 92 496 63 415 b 408 -17 63 150 207 -17 z m 410 164 b 238 342 313 164 238 244 b 410 519 238 439 313 519 b 582 342 507 519 582 439 b 410 164 582 244 507 164 z "},"7":{"ha":819,"x_min":0,"x_max":0,"o":"m 93 0 l 299 0 l 828 1069 l 69 1069 l 69 890 l 543 890 z "},"8":{"ha":819,"x_min":0,"x_max":0,"o":"m 629 604 b 701 796 675 656 701 722 b 410 1083 701 954 571 1083 b 118 796 249 1083 118 954 b 190 604 118 722 144 656 b 60 336 110 540 60 444 b 410 -14 60 142 217 -14 b 760 336 603 -14 760 142 b 629 604 760 444 710 540 z m 410 903 b 521 793 472 903 521 854 b 410 682 521 731 471 682 b 299 793 349 682 299 731 b 410 903 299 854 349 903 z m 410 167 b 240 336 317 167 240 242 b 410 503 240 428 317 503 b 579 336 503 503 579 428 b 410 167 579 242 503 167 z "},"9":{"ha":819,"x_min":0,"x_max":0,"o":"m 161 0 l 368 0 l 672 485 b 757 746 728 574 757 661 b 411 1086 757 925 603 1086 b 63 732 214 1086 63 925 b 392 369 63 543 194 381 z m 410 550 b 238 728 313 550 238 631 b 410 906 238 825 313 906 b 582 728 507 906 582 825 b 410 550 582 631 507 550 z "},"A":{"ha":975,"x_min":0,"x_max":0,"o":"m 769 0 l 974 0 l 488 1097 l 1 0 l 206 0 l 285 194 l 690 194 z m 354 364 l 488 689 l 621 364 z "},"Á":{"ha":975,"x_min":0,"x_max":0,"o":"m 732 1325 l 603 1436 l 394 1176 l 551 1176 z m 769 0 l 974 0 l 488 1097 l 1 0 l 206 0 l 285 194 l 690 194 z m 354 364 l 488 689 l 621 364 z "},"Ă":{"ha":975,"x_min":0,"x_max":0,"o":"m 497 1136 b 732 1382 625 1136 732 1247 l 732 1417 l 594 1417 l 594 1382 b 486 1274 594 1322 546 1274 b 379 1382 428 1274 379 1322 l 379 1417 l 242 1417 l 242 1382 b 497 1136 242 1242 350 1136 z m 769 0 l 974 0 l 488 1097 l 1 0 l 206 0 l 285 194 l 690 194 z m 354 364 l 488 689 l 621 364 z "},"Ǎ":{"ha":975,"x_min":0,"x_max":0,"o":"m 574 1179 l 726 1411 l 582 1411 l 488 1283 l 393 1411 l 249 1411 l 401 1179 z m 769 0 l 974 0 l 488 1097 l 1 0 l 206 0 l 285 194 l 690 194 z m 354 364 l 488 689 l 621 364 z "},"Â":{"ha":975,"x_min":0,"x_max":0,"o":"m 488 1307 l 582 1193 l 726 1193 l 574 1411 l 401 1411 l 249 1193 l 393 1193 z m 769 0 l 974 0 l 488 1097 l 1 0 l 206 0 l 285 194 l 690 194 z m 354 364 l 488 689 l 621 364 z "},"Ä":{"ha":975,"x_min":0,"x_max":0,"o":"m 347 1147 b 442 1243 399 1147 442 1190 b 347 1338 442 1294 399 1338 b 251 1243 294 1338 251 1294 b 347 1147 251 1190 294 1147 z m 628 1147 b 722 1243 679 1147 722 1190 b 628 1338 722 1294 679 1338 b 532 1243 575 1338 532 1294 b 628 1147 532 1190 575 1147 z m 769 0 l 974 0 l 488 1097 l 1 0 l 206 0 l 285 194 l 690 194 z m 354 364 l 488 689 l 621 364 z "},"À":{"ha":975,"x_min":0,"x_max":0,"o":"m 565 1171 l 385 1403 l 256 1292 l 408 1171 z m 769 0 l 974 0 l 488 1097 l 1 0 l 206 0 l 285 194 l 690 194 z m 354 364 l 488 689 l 621 364 z "},"Ā":{"ha":975,"x_min":0,"x_max":0,"o":"m 708 1304 l 267 1304 l 267 1160 l 708 1160 z m 769 0 l 974 0 l 488 1097 l 1 0 l 206 0 l 285 194 l 690 194 z m 354 364 l 488 689 l 621 364 z "},"Ą":{"ha":975,"x_min":0,"x_max":0,"o":"m 950 -147 b 874 -187 925 -176 897 -187 b 819 -128 843 -187 819 -168 b 974 0 819 -74 863 -12 l 488 1097 l 1 0 l 206 0 l 285 194 l 690 194 l 769 0 l 799 0 b 706 -162 736 -40 706 -100 b 874 -325 706 -265 785 -325 b 1038 -246 931 -325 992 -300 z m 354 364 l 488 689 l 621 364 z "},"Å":{"ha":975,"x_min":0,"x_max":0,"o":"m 769 0 l 974 0 l 535 990 b 707 1204 633 1011 707 1099 b 488 1424 707 1329 607 1424 b 268 1204 363 1424 268 1324 b 440 990 268 1096 343 1011 l 1 0 l 206 0 l 285 194 l 690 194 z m 383 1204 b 488 1308 383 1264 431 1308 b 592 1204 547 1308 592 1261 b 488 1100 592 1144 544 1100 b 383 1204 428 1100 383 1147 z m 354 364 l 488 689 l 621 364 z "},"Ã":{"ha":975,"x_min":0,"x_max":0,"o":"m 386 1226 b 599 1142 449 1226 485 1142 b 792 1328 701 1142 763 1210 l 665 1379 b 588 1281 661 1317 638 1281 b 372 1371 510 1281 482 1371 b 183 1188 283 1371 214 1311 l 314 1133 b 386 1226 326 1197 350 1226 z m 769 0 l 974 0 l 488 1097 l 1 0 l 206 0 l 285 194 l 690 194 z m 354 364 l 488 689 l 621 364 z "},"Æ":{"ha":1369,"x_min":0,"x_max":0,"o":"m 1304 889 l 1304 1069 l 488 1069 l 1 0 l 213 0 l 314 236 l 638 236 l 638 0 l 1304 0 l 1304 181 l 825 181 l 825 451 l 1249 451 l 1249 618 l 825 618 l 825 889 z m 381 389 l 611 924 l 638 924 l 638 389 z "},"B":{"ha":882,"x_min":0,"x_max":0,"o":"m 100 0 l 542 0 b 854 313 713 0 854 139 b 703 571 854 418 801 519 b 778 757 757 628 778 689 b 465 1069 778 931 638 1069 l 100 1069 z m 281 619 l 281 889 l 465 889 b 597 753 539 889 597 828 b 465 619 597 676 538 619 z m 281 181 l 281 450 l 542 450 b 674 317 615 450 674 392 b 542 181 674 240 614 181 z "},"C":{"ha":938,"x_min":0,"x_max":0,"o":"m 619 -14 b 868 49 710 -14 789 7 l 868 274 b 615 169 792 203 722 169 b 247 535 407 169 247 332 b 617 900 247 740 411 900 b 868 797 717 900 789 868 l 868 1021 b 619 1083 789 1063 710 1083 b 64 536 313 1083 64 843 b 619 -14 64 231 310 -14 z "},"Ć":{"ha":938,"x_min":0,"x_max":0,"o":"m 496 1176 l 653 1176 l 833 1325 l 704 1436 z m 619 -14 b 868 49 710 -14 789 7 l 868 274 b 615 169 792 203 722 169 b 247 535 407 169 247 332 b 617 900 247 740 411 900 b 868 797 717 900 789 868 l 868 1021 b 619 1083 789 1063 710 1083 b 64 536 313 1083 64 843 b 619 -14 64 231 310 -14 z "},"Č":{"ha":938,"x_min":0,"x_max":0,"o":"m 503 1179 l 675 1179 l 828 1411 l 683 1411 l 589 1283 l 494 1411 l 350 1411 z m 619 -14 b 868 49 710 -14 789 7 l 868 274 b 615 169 792 203 722 169 b 247 535 407 169 247 332 b 617 900 247 740 411 900 b 868 797 717 900 789 868 l 868 1021 b 619 1083 789 1063 710 1083 b 64 536 313 1083 64 843 b 619 -14 64 231 310 -14 z "},"Ç":{"ha":938,"x_min":0,"x_max":0,"o":"m 617 900 b 868 797 717 900 789 868 l 868 1021 b 619 1083 789 1063 710 1083 b 64 536 313 1083 64 843 b 557 -11 64 251 278 19 l 486 -108 l 550 -172 b 601 -150 560 -160 582 -150 b 663 -212 631 -150 663 -169 b 603 -274 663 -251 635 -274 b 525 -226 576 -274 546 -258 l 464 -308 b 604 -367 500 -349 553 -367 b 763 -212 703 -367 763 -299 b 628 -60 763 -131 708 -71 l 671 -11 b 868 49 740 -6 804 15 l 868 274 b 615 169 792 203 722 169 b 247 535 407 169 247 332 b 617 900 247 740 411 900 z "},"Ċ":{"ha":938,"x_min":0,"x_max":0,"o":"m 589 1142 b 683 1238 640 1142 683 1185 b 589 1332 683 1289 640 1332 b 493 1238 536 1332 493 1289 b 589 1142 493 1185 536 1142 z m 619 -14 b 868 49 710 -14 789 7 l 868 274 b 615 169 792 203 722 169 b 247 535 407 169 247 332 b 617 900 247 740 411 900 b 868 797 717 900 789 868 l 868 1021 b 619 1083 789 1063 710 1083 b 64 536 313 1083 64 843 b 619 -14 64 231 310 -14 z "},"D":{"ha":1010,"x_min":0,"x_max":0,"o":"m 100 0 l 411 0 b 946 535 707 0 946 239 b 411 1069 946 831 707 1069 l 100 1069 z m 281 181 l 281 889 l 411 889 b 765 535 610 889 765 731 b 411 181 765 338 610 181 z "},"Ð":{"ha":1010,"x_min":0,"x_max":0,"o":"m 411 1069 l 100 1069 l 100 600 l -7 600 l -7 469 l 100 469 l 100 0 l 411 0 b 946 535 707 0 946 239 b 411 1069 946 831 707 1069 z m 411 181 l 281 181 l 281 469 l 560 469 l 560 600 l 281 600 l 281 889 l 411 889 b 765 535 610 889 765 731 b 411 181 765 338 610 181 z "},"Ď":{"ha":1010,"x_min":0,"x_max":0,"o":"m 389 1179 l 561 1179 l 714 1411 l 569 1411 l 475 1283 l 381 1411 l 236 1411 z m 100 0 l 411 0 b 946 535 707 0 946 239 b 411 1069 946 831 707 1069 l 100 1069 z m 281 181 l 281 889 l 411 889 b 765 535 610 889 765 731 b 411 181 765 338 610 181 z "},"Đ":{"ha":1010,"x_min":0,"x_max":0,"o":"m 411 1069 l 100 1069 l 100 600 l -7 600 l -7 469 l 100 469 l 100 0 l 411 0 b 946 535 707 0 946 239 b 411 1069 946 831 707 1069 z m 411 181 l 281 181 l 281 469 l 560 469 l 560 600 l 281 600 l 281 889 l 411 889 b 765 535 610 889 765 731 b 411 181 765 338 610 181 z "},"E":{"ha":832,"x_min":0,"x_max":0,"o":"m 100 0 l 767 0 l 767 181 l 281 181 l 281 444 l 711 444 l 711 625 l 281 625 l 281 889 l 767 889 l 767 1069 l 100 1069 z "},"É":{"ha":832,"x_min":0,"x_max":0,"o":"m 340 1176 l 497 1176 l 678 1325 l 549 1436 z m 100 0 l 767 0 l 767 181 l 281 181 l 281 444 l 711 444 l 711 625 l 281 625 l 281 889 l 767 889 l 767 1069 l 100 1069 z "},"Ě":{"ha":832,"x_min":0,"x_max":0,"o":"m 347 1179 l 519 1179 l 672 1411 l 528 1411 l 433 1283 l 339 1411 l 194 1411 z m 100 0 l 767 0 l 767 181 l 281 181 l 281 444 l 711 444 l 711 625 l 281 625 l 281 889 l 767 889 l 767 1069 l 100 1069 z "},"Ê":{"ha":832,"x_min":0,"x_max":0,"o":"m 194 1193 l 339 1193 l 433 1307 l 528 1193 l 672 1193 l 519 1411 l 347 1411 z m 100 0 l 767 0 l 767 181 l 281 181 l 281 444 l 711 444 l 711 625 l 281 625 l 281 889 l 767 889 l 767 1069 l 100 1069 z "},"Ë":{"ha":832,"x_min":0,"x_max":0,"o":"m 293 1147 b 388 1243 344 1147 388 1190 b 293 1338 388 1294 344 1338 b 197 1243 240 1338 197 1294 b 293 1147 197 1190 240 1147 z m 574 1147 b 668 1243 625 1147 668 1190 b 574 1338 668 1294 625 1338 b 478 1243 521 1338 478 1294 b 574 1147 478 1190 521 1147 z m 100 0 l 767 0 l 767 181 l 281 181 l 281 444 l 711 444 l 711 625 l 281 625 l 281 889 l 767 889 l 767 1069 l 100 1069 z "},"Ė":{"ha":832,"x_min":0,"x_max":0,"o":"m 433 1142 b 528 1238 485 1142 528 1185 b 433 1332 528 1289 485 1332 b 338 1238 381 1332 338 1289 b 433 1142 338 1185 381 1142 z m 100 0 l 767 0 l 767 181 l 281 181 l 281 444 l 711 444 l 711 625 l 281 625 l 281 889 l 767 889 l 767 1069 l 100 1069 z "},"È":{"ha":832,"x_min":0,"x_max":0,"o":"m 354 1171 l 511 1171 l 331 1403 l 201 1292 z m 100 0 l 767 0 l 767 181 l 281 181 l 281 444 l 711 444 l 711 625 l 281 625 l 281 889 l 767 889 l 767 1069 l 100 1069 z "},"Ē":{"ha":832,"x_min":0,"x_max":0,"o":"m 213 1160 l 654 1160 l 654 1304 l 213 1304 z m 100 0 l 767 0 l 767 181 l 281 181 l 281 444 l 711 444 l 711 625 l 281 625 l 281 889 l 767 889 l 767 1069 l 100 1069 z "},"Ę":{"ha":832,"x_min":0,"x_max":0,"o":"m 743 -147 b 667 -187 718 -176 690 -187 b 613 -128 636 -187 613 -168 b 767 0 613 -74 656 -12 l 767 181 l 281 181 l 281 444 l 711 444 l 711 625 l 281 625 l 281 889 l 767 889 l 767 1069 l 100 1069 l 100 0 l 592 0 b 499 -162 529 -40 499 -100 b 667 -325 499 -265 578 -325 b 831 -246 724 -325 785 -300 z "},"Ẽ":{"ha":832,"x_min":0,"x_max":0,"o":"m 260 1133 b 332 1226 272 1197 296 1226 b 544 1142 394 1226 431 1142 b 738 1328 647 1142 708 1210 l 611 1379 b 533 1281 607 1317 583 1281 b 318 1371 456 1281 428 1371 b 129 1188 229 1371 160 1311 z m 100 0 l 767 0 l 767 181 l 281 181 l 281 444 l 711 444 l 711 625 l 281 625 l 281 889 l 767 889 l 767 1069 l 100 1069 z "},"F":{"ha":803,"x_min":0,"x_max":0,"o":"m 100 0 l 281 0 l 281 444 l 711 444 l 711 625 l 281 625 l 281 889 l 767 889 l 767 1069 l 100 1069 z "},"G":{"ha":1083,"x_min":0,"x_max":0,"o":"m 618 -14 b 1000 131 763 -14 889 39 l 1000 625 l 615 625 l 615 444 l 832 444 l 832 240 b 615 169 768 193 694 169 b 247 535 408 169 247 332 b 617 900 247 740 411 900 b 868 799 710 900 797 867 l 997 928 b 617 1083 888 1032 757 1083 b 64 535 311 1083 64 840 b 618 -14 64 229 311 -14 z "},"Ğ":{"ha":1083,"x_min":0,"x_max":0,"o":"m 581 1136 b 815 1382 708 1136 815 1247 l 815 1417 l 678 1417 l 678 1382 b 569 1274 678 1322 629 1274 b 463 1382 511 1274 463 1322 l 463 1417 l 325 1417 l 325 1382 b 581 1136 325 1242 433 1136 z m 618 -14 b 1000 131 763 -14 889 39 l 1000 625 l 615 625 l 615 444 l 832 444 l 832 240 b 615 169 768 193 694 169 b 247 535 408 169 247 332 b 617 900 247 740 411 900 b 868 799 710 900 797 867 l 997 928 b 617 1083 888 1032 757 1083 b 64 535 311 1083 64 840 b 618 -14 64 229 311 -14 z "},"Ģ":{"ha":1083,"x_min":0,"x_max":0,"o":"m 618 -14 b 1000 131 763 -14 889 39 l 1000 625 l 615 625 l 615 444 l 832 444 l 832 240 b 615 169 768 193 694 169 b 247 535 408 169 247 332 b 617 900 247 740 411 900 b 868 799 710 900 797 867 l 997 928 b 617 1083 888 1032 757 1083 b 64 535 311 1083 64 840 b 618 -14 64 229 311 -14 z m 526 -412 l 600 -412 l 753 -97 l 568 -97 z "},"Ġ":{"ha":1083,"x_min":0,"x_max":0,"o":"m 571 1142 b 665 1238 622 1142 665 1185 b 571 1332 665 1289 622 1332 b 475 1238 518 1332 475 1289 b 571 1142 475 1185 518 1142 z m 618 -14 b 1000 131 763 -14 889 39 l 1000 625 l 615 625 l 615 444 l 832 444 l 832 240 b 615 169 768 193 694 169 b 247 535 408 169 247 332 b 617 900 247 740 411 900 b 868 799 710 900 797 867 l 997 928 b 617 1083 888 1032 757 1083 b 64 535 311 1083 64 840 b 618 -14 64 229 311 -14 z "},"H":{"ha":951,"x_min":0,"x_max":0,"o":"m 100 0 l 281 0 l 281 444 l 671 444 l 671 0 l 851 0 l 851 1069 l 671 1069 l 671 625 l 281 625 l 281 1069 l 100 1069 z "},"Ħ":{"ha":951,"x_min":0,"x_max":0,"o":"m 919 938 l 851 938 l 851 1069 l 671 1069 l 671 938 l 281 938 l 281 1069 l 100 1069 l 100 938 l 33 938 l 33 793 l 100 793 l 100 0 l 281 0 l 281 444 l 671 444 l 671 0 l 851 0 l 851 793 l 919 793 z m 671 625 l 281 625 l 281 793 l 671 793 z "},"I":{"ha":381,"x_min":0,"x_max":0,"o":"m 100 0 l 281 0 l 281 1069 l 100 1069 z "},"Í":{"ha":381,"x_min":0,"x_max":0,"o":"m 97 1176 l 254 1176 l 435 1325 l 306 1436 z m 100 0 l 281 0 l 281 1069 l 100 1069 z "},"Ǐ":{"ha":381,"x_min":0,"x_max":0,"o":"m 104 1179 l 276 1179 l 429 1411 l 285 1411 l 190 1283 l 96 1411 l -49 1411 z m 100 0 l 281 0 l 281 1069 l 100 1069 z "},"Î":{"ha":381,"x_min":0,"x_max":0,"o":"m -49 1193 l 96 1193 l 190 1307 l 285 1193 l 429 1193 l 276 1411 l 104 1411 z m 100 0 l 281 0 l 281 1069 l 100 1069 z "},"Ï":{"ha":381,"x_min":0,"x_max":0,"o":"m 50 1147 b 144 1243 101 1147 144 1190 b 50 1338 144 1294 101 1338 b -46 1243 -3 1338 -46 1294 b 50 1147 -46 1190 -3 1147 z m 331 1147 b 425 1243 382 1147 425 1190 b 331 1338 425 1294 382 1338 b 235 1243 278 1338 235 1294 b 331 1147 235 1190 278 1147 z m 100 0 l 281 0 l 281 1069 l 100 1069 z "},"İ":{"ha":381,"x_min":0,"x_max":0,"o":"m 190 1142 b 285 1238 242 1142 285 1185 b 190 1332 285 1289 242 1332 b 94 1238 138 1332 94 1289 b 190 1142 94 1185 138 1142 z m 100 0 l 281 0 l 281 1069 l 100 1069 z "},"Ì":{"ha":381,"x_min":0,"x_max":0,"o":"m 111 1171 l 268 1171 l 88 1403 l -42 1292 z m 100 0 l 281 0 l 281 1069 l 100 1069 z "},"Ī":{"ha":381,"x_min":0,"x_max":0,"o":"m -31 1160 l 411 1160 l 411 1304 l -31 1304 z m 100 0 l 281 0 l 281 1069 l 100 1069 z "},"Į":{"ha":381,"x_min":0,"x_max":0,"o":"m 257 -147 b 181 -187 232 -176 204 -187 b 126 -128 150 -187 126 -168 b 281 0 126 -74 169 -12 l 281 1069 l 100 1069 l 100 0 l 106 0 b 13 -162 43 -40 13 -100 b 181 -325 13 -265 92 -325 b 344 -246 238 -325 299 -300 z "},"Ĩ":{"ha":381,"x_min":0,"x_max":0,"o":"m 17 1133 b 89 1226 29 1197 53 1226 b 301 1142 151 1226 188 1142 b 494 1328 404 1142 465 1210 l 368 1379 b 290 1281 364 1317 340 1281 b 75 1371 213 1281 185 1371 b -114 1188 -14 1371 -83 1311 z m 100 0 l 281 0 l 281 1069 l 100 1069 z "},"J":{"ha":753,"x_min":0,"x_max":0,"o":"m 360 -14 b 664 263 536 -14 664 103 l 664 1069 l 483 1069 l 483 263 b 360 163 483 204 432 163 b 236 263 288 163 236 204 l 236 408 l 56 408 l 56 263 b 360 -14 56 103 183 -14 z "},"K":{"ha":861,"x_min":0,"x_max":0,"o":"m 861 0 l 481 582 l 854 1069 l 635 1069 l 281 597 l 281 1069 l 100 1069 l 100 0 l 281 0 l 281 565 l 643 0 z "},"Ķ":{"ha":861,"x_min":0,"x_max":0,"o":"m 481 582 l 854 1069 l 635 1069 l 281 597 l 281 1069 l 100 1069 l 100 0 l 281 0 l 281 565 l 643 0 l 861 0 z m 269 -412 l 343 -412 l 496 -97 l 311 -97 z "},"L":{"ha":699,"x_min":0,"x_max":0,"o":"m 100 0 l 683 0 l 683 181 l 281 181 l 281 1069 l 100 1069 z "},"Ĺ":{"ha":699,"x_min":0,"x_max":0,"o":"m 97 1176 l 254 1176 l 435 1325 l 306 1436 z m 100 0 l 683 0 l 683 181 l 281 181 l 281 1069 l 100 1069 z "},"Ľ":{"ha":700,"x_min":0,"x_max":0,"o":"m 100 0 l 683 0 l 683 181 l 281 181 l 281 1069 l 100 1069 z m 488 657 l 603 657 l 672 1069 l 488 1069 z "},"Ļ":{"ha":699,"x_min":0,"x_max":0,"o":"m 100 0 l 683 0 l 683 181 l 281 181 l 281 1069 l 100 1069 z m 257 -412 l 331 -412 l 483 -97 l 299 -97 z "},"Ł":{"ha":699,"x_min":0,"x_max":0,"o":"m 281 181 l 281 489 l 406 535 l 357 664 l 281 636 l 281 1069 l 100 1069 l 100 569 l 0 533 l 49 404 l 100 424 l 100 0 l 683 0 l 683 181 z "},"M":{"ha":1217,"x_min":0,"x_max":0,"o":"m 100 0 l 281 0 l 281 549 l 608 94 l 938 549 l 938 0 l 1117 0 l 1117 1097 l 608 394 l 100 1097 z "},"Ḿ":{"ha":1217,"x_min":0,"x_max":0,"o":"m 515 1176 l 672 1176 l 853 1325 l 724 1436 z m 100 0 l 281 0 l 281 549 l 608 94 l 938 549 l 938 0 l 1117 0 l 1117 1097 l 608 394 l 100 1097 z "},"N":{"ha":1024,"x_min":0,"x_max":0,"o":"m 924 -31 l 924 1069 l 743 1069 l 743 410 l 100 1097 l 100 0 l 281 0 l 281 657 z "},"Ń":{"ha":1024,"x_min":0,"x_max":0,"o":"m 419 1176 l 576 1176 l 757 1325 l 628 1436 z m 924 -31 l 924 1069 l 743 1069 l 743 410 l 100 1097 l 100 0 l 281 0 l 281 657 z "},"Ň":{"ha":1024,"x_min":0,"x_max":0,"o":"m 426 1179 l 599 1179 l 751 1411 l 607 1411 l 513 1283 l 418 1411 l 274 1411 z m 924 -31 l 924 1069 l 743 1069 l 743 410 l 100 1097 l 100 0 l 281 0 l 281 657 z "},"Ņ":{"ha":1024,"x_min":0,"x_max":0,"o":"m 924 -31 l 924 1069 l 743 1069 l 743 410 l 100 1097 l 100 0 l 281 0 l 281 657 z m 378 -412 l 451 -412 l 604 -97 l 419 -97 z "},"Ṅ":{"ha":1024,"x_min":0,"x_max":0,"o":"m 513 1142 b 607 1238 564 1142 607 1185 b 513 1332 607 1289 564 1332 b 417 1238 460 1332 417 1289 b 513 1142 417 1185 460 1142 z m 924 -31 l 924 1069 l 743 1069 l 743 410 l 100 1097 l 100 0 l 281 0 l 281 657 z "},"Ŋ":{"ha":1024,"x_min":0,"x_max":0,"o":"m 743 1069 l 743 410 l 100 1097 l 100 0 l 281 0 l 281 657 l 750 156 l 750 -14 b 668 -111 750 -76 717 -111 l 594 -111 l 594 -236 l 706 -236 b 924 -46 829 -236 924 -183 l 924 1069 z "},"Ñ":{"ha":1024,"x_min":0,"x_max":0,"o":"m 339 1133 b 411 1226 351 1197 375 1226 b 624 1142 474 1226 510 1142 b 817 1328 726 1142 788 1210 l 690 1379 b 613 1281 686 1317 663 1281 b 397 1371 535 1281 507 1371 b 208 1188 308 1371 239 1311 z m 924 -31 l 924 1069 l 743 1069 l 743 410 l 100 1097 l 100 0 l 281 0 l 281 657 z "},"O":{"ha":1225,"x_min":0,"x_max":0,"o":"m 613 -14 b 1161 535 911 -14 1161 226 b 613 1083 1161 833 921 1083 b 64 535 314 1083 64 843 b 613 -14 64 236 304 -14 z m 613 167 b 244 535 407 167 244 333 b 613 903 244 740 411 903 b 981 535 818 903 981 736 b 613 167 981 329 814 167 z "},"Ó":{"ha":1225,"x_min":0,"x_max":0,"o":"m 519 1176 l 676 1176 l 857 1325 l 728 1436 z m 613 -14 b 1161 535 911 -14 1161 226 b 613 1083 1161 833 921 1083 b 64 535 314 1083 64 843 b 613 -14 64 236 304 -14 z m 613 167 b 244 535 407 167 244 333 b 613 903 244 740 411 903 b 981 535 818 903 981 736 b 613 167 981 329 814 167 z "},"Ǒ":{"ha":1225,"x_min":0,"x_max":0,"o":"m 526 1179 l 699 1179 l 851 1411 l 707 1411 l 613 1283 l 518 1411 l 374 1411 z m 613 -14 b 1161 535 911 -14 1161 226 b 613 1083 1161 833 921 1083 b 64 535 314 1083 64 843 b 613 -14 64 236 304 -14 z m 613 167 b 244 535 407 167 244 333 b 613 903 244 740 411 903 b 981 535 818 903 981 736 b 613 167 981 329 814 167 z "},"Ô":{"ha":1225,"x_min":0,"x_max":0,"o":"m 374 1193 l 518 1193 l 613 1307 l 707 1193 l 851 1193 l 699 1411 l 526 1411 z m 613 -14 b 1161 535 911 -14 1161 226 b 613 1083 1161 833 921 1083 b 64 535 314 1083 64 843 b 613 -14 64 236 304 -14 z m 613 167 b 244 535 407 167 244 333 b 613 903 244 740 411 903 b 981 535 818 903 981 736 b 613 167 981 329 814 167 z "},"Ö":{"ha":1225,"x_min":0,"x_max":0,"o":"m 472 1147 b 567 1243 524 1147 567 1190 b 472 1338 567 1294 524 1338 b 376 1243 419 1338 376 1294 b 472 1147 376 1190 419 1147 z m 753 1147 b 847 1243 804 1147 847 1190 b 753 1338 847 1294 804 1338 b 657 1243 700 1338 657 1294 b 753 1147 657 1190 700 1147 z m 613 -14 b 1161 535 911 -14 1161 226 b 613 1083 1161 833 921 1083 b 64 535 314 1083 64 843 b 613 -14 64 236 304 -14 z m 613 167 b 244 535 407 167 244 333 b 613 903 244 740 411 903 b 981 535 818 903 981 736 b 613 167 981 329 814 167 z "},"Ò":{"ha":1225,"x_min":0,"x_max":0,"o":"m 533 1171 l 690 1171 l 510 1403 l 381 1292 z m 613 -14 b 1161 535 911 -14 1161 226 b 613 1083 1161 833 921 1083 b 64 535 314 1083 64 843 b 613 -14 64 236 304 -14 z m 613 167 b 244 535 407 167 244 333 b 613 903 244 740 411 903 b 981 535 818 903 981 736 b 613 167 981 329 814 167 z "},"Ő":{"ha":1225,"x_min":0,"x_max":0,"o":"m 496 1171 l 676 1319 l 547 1431 l 339 1171 z m 801 1171 l 982 1319 l 853 1431 l 644 1171 z m 613 -14 b 1161 535 911 -14 1161 226 b 613 1083 1161 833 921 1083 b 64 535 314 1083 64 843 b 613 -14 64 236 304 -14 z m 613 167 b 244 535 407 167 244 333 b 613 903 244 740 411 903 b 981 535 818 903 981 736 b 613 167 981 329 814 167 z "},"Ō":{"ha":1225,"x_min":0,"x_max":0,"o":"m 392 1160 l 833 1160 l 833 1304 l 392 1304 z m 613 -14 b 1161 535 911 -14 1161 226 b 613 1083 1161 833 921 1083 b 64 535 314 1083 64 843 b 613 -14 64 236 304 -14 z m 613 167 b 244 535 407 167 244 333 b 613 903 244 740 411 903 b 981 535 818 903 981 736 b 613 167 981 329 814 167 z "},"Ø":{"ha":1225,"x_min":0,"x_max":0,"o":"m 1051 865 l 1132 946 l 1024 1054 l 943 974 b 613 1083 851 1042 738 1083 b 64 535 314 1083 64 843 b 174 204 64 411 104 297 l 93 124 l 201 15 l 282 96 b 613 -14 374 28 488 -14 b 1161 535 911 -14 1161 226 b 1051 865 1161 658 1121 772 z m 244 535 b 613 903 244 740 411 903 b 813 843 688 903 756 881 l 304 335 b 244 535 267 392 244 461 z m 613 167 b 413 226 538 167 469 189 l 921 735 b 981 535 958 678 981 608 b 613 167 981 329 814 167 z "},"Ǿ":{"ha":1225,"x_min":0,"x_max":0,"o":"m 857 1325 l 728 1436 l 519 1176 l 676 1176 z m 1051 865 l 1132 946 l 1024 1054 l 943 974 b 613 1083 851 1042 738 1083 b 64 535 314 1083 64 843 b 174 204 64 411 104 297 l 93 124 l 201 15 l 282 96 b 613 -14 374 28 488 -14 b 1161 535 911 -14 1161 226 b 1051 865 1161 658 1121 772 z m 244 535 b 613 903 244 740 411 903 b 813 843 688 903 756 881 l 304 335 b 244 535 267 392 244 461 z m 613 167 b 413 226 538 167 469 189 l 921 735 b 981 535 958 678 981 608 b 613 167 981 329 814 167 z "},"Õ":{"ha":1225,"x_min":0,"x_max":0,"o":"m 439 1133 b 511 1226 451 1197 475 1226 b 724 1142 574 1226 610 1142 b 917 1328 826 1142 888 1210 l 790 1379 b 713 1281 786 1317 763 1281 b 497 1371 635 1281 607 1371 b 308 1188 408 1371 339 1311 z m 613 -14 b 1161 535 911 -14 1161 226 b 613 1083 1161 833 921 1083 b 64 535 314 1083 64 843 b 613 -14 64 236 304 -14 z m 613 167 b 244 535 407 167 244 333 b 613 903 244 740 411 903 b 981 535 818 903 981 736 b 613 167 981 329 814 167 z "},"Ṍ":{"ha":1225,"x_min":0,"x_max":0,"o":"m 519 1486 l 676 1486 l 857 1635 l 728 1746 z m 439 1133 b 511 1226 451 1197 475 1226 b 724 1142 574 1226 610 1142 b 917 1328 826 1142 888 1210 l 790 1379 b 713 1281 786 1317 763 1281 b 497 1371 635 1281 607 1371 b 308 1188 408 1371 339 1311 z m 613 -14 b 1161 535 911 -14 1161 226 b 613 1083 1161 833 921 1083 b 64 535 314 1083 64 843 b 613 -14 64 236 304 -14 z m 613 167 b 244 535 407 167 244 333 b 613 903 244 740 411 903 b 981 535 818 903 981 736 b 613 167 981 329 814 167 z "},"Œ":{"ha":1715,"x_min":0,"x_max":0,"o":"m 1650 889 l 1650 1069 l 983 1069 l 983 939 b 613 1083 886 1028 757 1083 b 64 535 314 1083 64 843 b 613 -14 64 236 304 -14 b 983 131 754 -14 885 40 l 983 0 l 1650 0 l 1650 181 l 1164 181 l 1164 444 l 1594 444 l 1594 625 l 1164 625 l 1164 889 z m 613 167 b 244 535 407 167 244 333 b 613 903 244 740 411 903 b 981 535 818 903 981 736 b 613 167 981 329 814 167 z "},"P":{"ha":850,"x_min":0,"x_max":0,"o":"m 100 0 l 281 0 l 281 396 l 499 396 b 835 733 685 396 835 518 b 499 1069 835 947 683 1069 l 100 1069 z m 281 576 l 281 889 l 499 889 b 654 733 585 889 654 833 b 499 576 654 632 585 576 z "},"Þ":{"ha":894,"x_min":0,"x_max":0,"o":"m 542 875 l 301 875 l 301 1069 l 121 1069 l 121 0 l 301 0 l 301 250 l 542 250 b 854 563 715 250 854 390 b 542 875 854 736 714 875 z m 542 431 l 301 431 l 301 694 l 542 694 b 674 563 615 694 674 635 b 542 431 674 489 614 431 z "},"Q":{"ha":1225,"x_min":0,"x_max":0,"o":"m 1161 535 b 613 1083 1161 833 921 1083 b 64 535 314 1083 64 843 b 528 -7 64 264 261 33 l 528 -174 l 697 -174 l 697 -7 b 1161 535 957 33 1161 256 z m 697 176 l 697 353 l 528 353 l 528 176 b 244 535 364 215 244 363 b 613 903 244 740 411 903 b 981 535 818 903 981 736 b 697 176 981 358 858 214 z "},"R":{"ha":896,"x_min":0,"x_max":0,"o":"m 868 0 l 625 418 b 835 733 749 465 835 581 b 499 1069 835 933 683 1069 l 100 1069 l 100 0 l 281 0 l 281 396 l 440 396 l 660 0 z m 281 889 l 485 889 b 654 733 585 889 654 833 b 485 576 654 632 585 576 l 281 576 z "},"Ŕ":{"ha":896,"x_min":0,"x_max":0,"o":"m 681 1325 l 551 1436 l 343 1176 l 500 1176 z m 868 0 l 625 418 b 835 733 749 465 835 581 b 499 1069 835 933 683 1069 l 100 1069 l 100 0 l 281 0 l 281 396 l 440 396 l 660 0 z m 281 889 l 485 889 b 654 733 585 889 654 833 b 485 576 654 632 585 576 l 281 576 z "},"Ř":{"ha":896,"x_min":0,"x_max":0,"o":"m 522 1179 l 675 1411 l 531 1411 l 436 1283 l 342 1411 l 197 1411 l 350 1179 z m 868 0 l 625 418 b 835 733 749 465 835 581 b 499 1069 835 933 683 1069 l 100 1069 l 100 0 l 281 0 l 281 396 l 440 396 l 660 0 z m 281 889 l 485 889 b 654 733 585 889 654 833 b 485 576 654 632 585 576 l 281 576 z "},"Ŗ":{"ha":896,"x_min":0,"x_max":0,"o":"m 625 418 b 835 733 749 465 835 581 b 499 1069 835 933 683 1069 l 100 1069 l 100 0 l 281 0 l 281 396 l 440 396 l 660 0 l 868 0 z m 281 889 l 485 889 b 654 733 585 889 654 833 b 485 576 654 632 585 576 l 281 576 z m 336 -412 l 410 -412 l 563 -97 l 378 -97 z "},"S":{"ha":758,"x_min":0,"x_max":0,"o":"m 382 -14 b 714 314 569 -14 714 117 b 271 806 714 661 271 615 b 388 914 271 868 318 914 b 511 808 451 914 496 875 l 674 883 b 383 1083 633 1003 522 1083 b 92 800 222 1083 92 976 b 533 317 92 475 533 531 b 376 165 533 231 471 165 b 199 306 292 165 222 218 l 35 232 b 382 -14 78 89 215 -14 z "},"Ś":{"ha":758,"x_min":0,"x_max":0,"o":"m 286 1176 l 443 1176 l 624 1325 l 494 1436 z m 382 -14 b 714 314 569 -14 714 117 b 271 806 714 661 271 615 b 388 914 271 868 318 914 b 511 808 451 914 496 875 l 674 883 b 383 1083 633 1003 522 1083 b 92 800 222 1083 92 976 b 533 317 92 475 533 531 b 376 165 533 231 471 165 b 199 306 292 165 222 218 l 35 232 b 382 -14 78 89 215 -14 z "},"Š":{"ha":758,"x_min":0,"x_max":0,"o":"m 293 1179 l 465 1179 l 618 1411 l 474 1411 l 379 1283 l 285 1411 l 140 1411 z m 382 -14 b 714 314 569 -14 714 117 b 271 806 714 661 271 615 b 388 914 271 868 318 914 b 511 808 451 914 496 875 l 674 883 b 383 1083 633 1003 522 1083 b 92 800 222 1083 92 976 b 533 317 92 475 533 531 b 376 165 533 231 471 165 b 199 306 292 165 222 218 l 35 232 b 382 -14 78 89 215 -14 z "},"Ş":{"ha":758,"x_min":0,"x_max":0,"o":"m 714 314 b 271 806 714 661 271 615 b 388 914 271 868 318 914 b 511 808 451 914 496 875 l 674 883 b 383 1083 633 1003 522 1083 b 92 800 222 1083 92 976 b 533 317 92 475 533 531 b 376 165 533 231 471 165 b 199 306 292 165 222 218 l 35 232 b 321 -10 72 107 182 13 l 250 -108 l 314 -172 b 365 -150 324 -160 346 -150 b 426 -212 394 -150 426 -169 b 367 -274 426 -251 399 -274 b 289 -226 340 -274 310 -258 l 228 -308 b 368 -367 264 -349 317 -367 b 526 -212 467 -367 526 -299 b 392 -60 526 -131 472 -71 l 436 -10 b 714 314 596 13 714 136 z "},"Ș":{"ha":758,"x_min":0,"x_max":0,"o":"m 382 -14 b 714 314 569 -14 714 117 b 271 806 714 661 271 615 b 388 914 271 868 318 914 b 511 808 451 914 496 875 l 674 883 b 383 1083 633 1003 522 1083 b 92 800 222 1083 92 976 b 533 317 92 475 533 531 b 376 165 533 231 471 165 b 199 306 292 165 222 218 l 35 232 b 382 -14 78 89 215 -14 z m 244 -412 l 318 -412 l 471 -97 l 286 -97 z "},"T":{"ha":782,"x_min":0,"x_max":0,"o":"m 300 0 l 481 0 l 481 889 l 754 889 l 754 1069 l 25 1069 l 25 889 l 300 889 z "},"Ŧ":{"ha":782,"x_min":0,"x_max":0,"o":"m 754 889 l 754 1069 l 25 1069 l 25 889 l 300 889 l 300 600 l 107 600 l 107 469 l 300 469 l 300 0 l 481 0 l 481 469 l 674 469 l 674 600 l 481 600 l 481 889 z "},"Ť":{"ha":782,"x_min":0,"x_max":0,"o":"m 304 1179 l 476 1179 l 629 1411 l 485 1411 l 390 1283 l 296 1411 l 151 1411 z m 300 0 l 481 0 l 481 889 l 754 889 l 754 1069 l 25 1069 l 25 889 l 300 889 z "},"Ţ":{"ha":782,"x_min":0,"x_max":0,"o":"m 481 0 l 481 889 l 754 889 l 754 1069 l 25 1069 l 25 889 l 300 889 l 300 0 l 339 0 l 261 -108 l 325 -172 b 376 -150 335 -160 357 -150 b 438 -212 406 -150 438 -169 b 378 -274 438 -251 410 -274 b 300 -226 351 -274 321 -258 l 239 -308 b 379 -367 275 -349 328 -367 b 538 -212 478 -367 538 -299 b 403 -60 538 -131 483 -71 l 456 0 z "},"Ț":{"ha":782,"x_min":0,"x_max":0,"o":"m 300 0 l 481 0 l 481 889 l 754 889 l 754 1069 l 25 1069 l 25 889 l 300 889 z m 256 -412 l 329 -412 l 482 -97 l 297 -97 z "},"U":{"ha":944,"x_min":0,"x_max":0,"o":"m 89 1069 l 89 369 b 472 -14 89 157 260 -14 b 856 369 685 -14 856 157 l 856 1069 l 675 1069 l 675 369 b 472 167 675 256 586 167 b 269 369 358 167 269 256 l 269 1069 z "},"Ú":{"ha":944,"x_min":0,"x_max":0,"o":"m 379 1176 l 536 1176 l 717 1325 l 588 1436 z m 89 1069 l 89 369 b 472 -14 89 157 260 -14 b 856 369 685 -14 856 157 l 856 1069 l 675 1069 l 675 369 b 472 167 675 256 586 167 b 269 369 358 167 269 256 l 269 1069 z "},"Ǔ":{"ha":944,"x_min":0,"x_max":0,"o":"m 386 1179 l 558 1179 l 711 1411 l 567 1411 l 472 1283 l 378 1411 l 233 1411 z m 89 1069 l 89 369 b 472 -14 89 157 260 -14 b 856 369 685 -14 856 157 l 856 1069 l 675 1069 l 675 369 b 472 167 675 256 586 167 b 269 369 358 167 269 256 l 269 1069 z "},"Û":{"ha":944,"x_min":0,"x_max":0,"o":"m 233 1193 l 378 1193 l 472 1307 l 567 1193 l 711 1193 l 558 1411 l 386 1411 z m 89 1069 l 89 369 b 472 -14 89 157 260 -14 b 856 369 685 -14 856 157 l 856 1069 l 675 1069 l 675 369 b 472 167 675 256 586 167 b 269 369 358 167 269 256 l 269 1069 z "},"Ü":{"ha":944,"x_min":0,"x_max":0,"o":"m 332 1147 b 426 1243 383 1147 426 1190 b 332 1338 426 1294 383 1338 b 236 1243 279 1338 236 1294 b 332 1147 236 1190 279 1147 z m 613 1147 b 707 1243 664 1147 707 1190 b 613 1338 707 1294 664 1338 b 517 1243 560 1338 517 1294 b 613 1147 517 1190 560 1147 z m 89 1069 l 89 369 b 472 -14 89 157 260 -14 b 856 369 685 -14 856 157 l 856 1069 l 675 1069 l 675 369 b 472 167 675 256 586 167 b 269 369 358 167 269 256 l 269 1069 z "},"Ǘ":{"ha":944,"x_min":0,"x_max":0,"o":"m 379 1431 l 536 1431 l 717 1579 l 588 1690 z m 332 1147 b 426 1243 383 1147 426 1190 b 332 1338 426 1294 383 1338 b 236 1243 279 1338 236 1294 b 332 1147 236 1190 279 1147 z m 613 1147 b 707 1243 664 1147 707 1190 b 613 1338 707 1294 664 1338 b 517 1243 560 1338 517 1294 b 613 1147 517 1190 560 1147 z m 89 1069 l 89 369 b 472 -14 89 157 260 -14 b 856 369 685 -14 856 157 l 856 1069 l 675 1069 l 675 369 b 472 167 675 256 586 167 b 269 369 358 167 269 256 l 269 1069 z "},"Ǚ":{"ha":944,"x_min":0,"x_max":0,"o":"m 386 1433 l 558 1433 l 711 1665 l 567 1665 l 472 1538 l 378 1665 l 233 1665 z m 332 1147 b 426 1243 383 1147 426 1190 b 332 1338 426 1294 383 1338 b 236 1243 279 1338 236 1294 b 332 1147 236 1190 279 1147 z m 613 1147 b 707 1243 664 1147 707 1190 b 613 1338 707 1294 664 1338 b 517 1243 560 1338 517 1294 b 613 1147 517 1190 560 1147 z m 89 1069 l 89 369 b 472 -14 89 157 260 -14 b 856 369 685 -14 856 157 l 856 1069 l 675 1069 l 675 369 b 472 167 675 256 586 167 b 269 369 358 167 269 256 l 269 1069 z "},"Ǜ":{"ha":944,"x_min":0,"x_max":0,"o":"m 393 1425 l 550 1425 l 369 1657 l 240 1546 z m 332 1147 b 426 1243 383 1147 426 1190 b 332 1338 426 1294 383 1338 b 236 1243 279 1338 236 1294 b 332 1147 236 1190 279 1147 z m 613 1147 b 707 1243 664 1147 707 1190 b 613 1338 707 1294 664 1338 b 517 1243 560 1338 517 1294 b 613 1147 517 1190 560 1147 z m 89 1069 l 89 369 b 472 -14 89 157 260 -14 b 856 369 685 -14 856 157 l 856 1069 l 675 1069 l 675 369 b 472 167 675 256 586 167 b 269 369 358 167 269 256 l 269 1069 z "},"Ǖ":{"ha":944,"x_min":0,"x_max":0,"o":"m 251 1414 l 693 1414 l 693 1558 l 251 1558 z m 332 1147 b 426 1243 383 1147 426 1190 b 332 1338 426 1294 383 1338 b 236 1243 279 1338 236 1294 b 332 1147 236 1190 279 1147 z m 613 1147 b 707 1243 664 1147 707 1190 b 613 1338 707 1294 664 1338 b 517 1243 560 1338 517 1294 b 613 1147 517 1190 560 1147 z m 89 1069 l 89 369 b 472 -14 89 157 260 -14 b 856 369 685 -14 856 157 l 856 1069 l 675 1069 l 675 369 b 472 167 675 256 586 167 b 269 369 358 167 269 256 l 269 1069 z "},"Ù":{"ha":944,"x_min":0,"x_max":0,"o":"m 393 1171 l 550 1171 l 369 1403 l 240 1292 z m 89 1069 l 89 369 b 472 -14 89 157 260 -14 b 856 369 685 -14 856 157 l 856 1069 l 675 1069 l 675 369 b 472 167 675 256 586 167 b 269 369 358 167 269 256 l 269 1069 z "},"Ű":{"ha":944,"x_min":0,"x_max":0,"o":"m 356 1171 l 536 1319 l 407 1431 l 199 1171 z m 661 1171 l 842 1319 l 713 1431 l 504 1171 z m 89 1069 l 89 369 b 472 -14 89 157 260 -14 b 856 369 685 -14 856 157 l 856 1069 l 675 1069 l 675 369 b 472 167 675 256 586 167 b 269 369 358 167 269 256 l 269 1069 z "},"Ū":{"ha":944,"x_min":0,"x_max":0,"o":"m 251 1160 l 693 1160 l 693 1304 l 251 1304 z m 89 1069 l 89 369 b 472 -14 89 157 260 -14 b 856 369 685 -14 856 157 l 856 1069 l 675 1069 l 675 369 b 472 167 675 256 586 167 b 269 369 358 167 269 256 l 269 1069 z "},"Ų":{"ha":944,"x_min":0,"x_max":0,"o":"m 675 1069 l 675 369 b 472 167 675 256 586 167 b 269 369 358 167 269 256 l 269 1069 l 89 1069 l 89 369 b 411 -10 89 178 228 19 b 349 -149 369 -47 349 -97 b 517 -311 349 -251 428 -311 b 681 -232 574 -311 635 -286 l 593 -133 b 517 -174 568 -162 540 -174 b 463 -114 486 -174 463 -154 b 535 -8 463 -76 483 -35 b 617 14 563 -4 590 3 b 856 369 757 71 856 208 l 856 1069 z "},"Ů":{"ha":944,"x_min":0,"x_max":0,"o":"m 472 1028 b 692 1247 594 1028 692 1125 b 472 1467 692 1372 592 1467 b 253 1247 347 1467 253 1367 b 472 1028 253 1122 353 1028 z m 472 1143 b 368 1247 413 1143 368 1190 b 472 1351 368 1307 415 1351 b 576 1247 532 1351 576 1304 b 472 1143 576 1188 529 1143 z m 89 1069 l 89 369 b 472 -14 89 157 260 -14 b 856 369 685 -14 856 157 l 856 1069 l 675 1069 l 675 369 b 472 167 675 256 586 167 b 269 369 358 167 269 256 l 269 1069 z "},"V":{"ha":975,"x_min":0,"x_max":0,"o":"m 488 -28 l 974 1069 l 760 1069 l 488 389 l 215 1069 l 1 1069 z "},"W":{"ha":1379,"x_min":0,"x_max":0,"o":"m 1378 1069 l 1178 1069 l 885 374 l 778 628 l 974 1069 l 788 1069 l 690 838 l 592 1069 l 406 1069 l 601 628 l 494 374 l 201 1069 l 1 1069 l 488 -28 l 690 428 l 892 -28 z "},"Ẃ":{"ha":1379,"x_min":0,"x_max":0,"o":"m 936 1325 l 807 1436 l 599 1176 l 756 1176 z m 1378 1069 l 1178 1069 l 885 374 l 778 628 l 974 1069 l 788 1069 l 690 838 l 592 1069 l 406 1069 l 601 628 l 494 374 l 201 1069 l 1 1069 l 488 -28 l 690 428 l 892 -28 z "},"Ŵ":{"ha":1379,"x_min":0,"x_max":0,"o":"m 692 1307 l 786 1193 l 931 1193 l 778 1411 l 606 1411 l 453 1193 l 597 1193 z m 1378 1069 l 1178 1069 l 885 374 l 778 628 l 974 1069 l 788 1069 l 690 838 l 592 1069 l 406 1069 l 601 628 l 494 374 l 201 1069 l 1 1069 l 488 -28 l 690 428 l 892 -28 z "},"Ẅ":{"ha":1379,"x_min":0,"x_max":0,"o":"m 551 1147 b 646 1243 603 1147 646 1190 b 551 1338 646 1294 603 1338 b 456 1243 499 1338 456 1294 b 551 1147 456 1190 499 1147 z m 832 1147 b 926 1243 883 1147 926 1190 b 832 1338 926 1294 883 1338 b 736 1243 779 1338 736 1294 b 832 1147 736 1190 779 1147 z m 1378 1069 l 1178 1069 l 885 374 l 778 628 l 974 1069 l 788 1069 l 690 838 l 592 1069 l 406 1069 l 601 628 l 494 374 l 201 1069 l 1 1069 l 488 -28 l 690 428 l 892 -28 z "},"Ẁ":{"ha":1379,"x_min":0,"x_max":0,"o":"m 769 1171 l 589 1403 l 460 1292 l 613 1171 z m 1378 1069 l 1178 1069 l 885 374 l 778 628 l 974 1069 l 788 1069 l 690 838 l 592 1069 l 406 1069 l 601 628 l 494 374 l 201 1069 l 1 1069 l 488 -28 l 690 428 l 892 -28 z "},"X":{"ha":908,"x_min":0,"x_max":0,"o":"m 917 1069 l 703 1069 l 454 668 l 206 1069 l -8 1069 l 326 529 l -4 0 l 210 0 l 454 392 l 699 0 l 913 0 l 582 529 z "},"Y":{"ha":822,"x_min":0,"x_max":0,"o":"m 321 0 l 501 0 l 501 510 l 831 1069 l 608 1069 l 411 685 l 215 1069 l -8 1069 l 321 510 z "},"Ý":{"ha":822,"x_min":0,"x_max":0,"o":"m 318 1176 l 475 1176 l 656 1325 l 526 1436 z m 321 0 l 501 0 l 501 510 l 831 1069 l 608 1069 l 411 685 l 215 1069 l -8 1069 l 321 510 z "},"Ŷ":{"ha":822,"x_min":0,"x_max":0,"o":"m 172 1193 l 317 1193 l 411 1307 l 506 1193 l 650 1193 l 497 1411 l 325 1411 z m 321 0 l 501 0 l 501 510 l 831 1069 l 608 1069 l 411 685 l 215 1069 l -8 1069 l 321 510 z "},"Ÿ":{"ha":822,"x_min":0,"x_max":0,"o":"m 271 1147 b 365 1243 322 1147 365 1190 b 271 1338 365 1294 322 1338 b 175 1243 218 1338 175 1294 b 271 1147 175 1190 218 1147 z m 551 1147 b 646 1243 603 1147 646 1190 b 551 1338 646 1294 603 1338 b 456 1243 499 1338 456 1294 b 551 1147 456 1190 499 1147 z m 321 0 l 501 0 l 501 510 l 831 1069 l 608 1069 l 411 685 l 215 1069 l -8 1069 l 321 510 z "},"Ỳ":{"ha":822,"x_min":0,"x_max":0,"o":"m 332 1171 l 489 1171 l 308 1403 l 179 1292 z m 321 0 l 501 0 l 501 510 l 831 1069 l 608 1069 l 411 685 l 215 1069 l -8 1069 l 321 510 z "},"Z":{"ha":943,"x_min":0,"x_max":0,"o":"m 51 0 l 890 0 l 890 181 l 367 181 l 890 1069 l 76 1069 l 76 889 l 575 889 z "},"Ź":{"ha":943,"x_min":0,"x_max":0,"o":"m 378 1176 l 535 1176 l 715 1325 l 586 1436 z m 51 0 l 890 0 l 890 181 l 367 181 l 890 1069 l 76 1069 l 76 889 l 575 889 z "},"Ž":{"ha":943,"x_min":0,"x_max":0,"o":"m 385 1179 l 557 1179 l 710 1411 l 565 1411 l 471 1283 l 376 1411 l 232 1411 z m 51 0 l 890 0 l 890 181 l 367 181 l 890 1069 l 76 1069 l 76 889 l 575 889 z "},"Ż":{"ha":943,"x_min":0,"x_max":0,"o":"m 471 1142 b 565 1238 522 1142 565 1185 b 471 1332 565 1289 522 1332 b 375 1238 418 1332 375 1289 b 471 1142 375 1185 418 1142 z m 51 0 l 890 0 l 890 181 l 367 181 l 890 1069 l 76 1069 l 76 889 l 575 889 z "},"a":{"ha":899,"x_min":0,"x_max":0,"o":"m 394 -14 b 631 90 499 -14 578 25 l 635 0 l 803 0 l 803 700 l 622 700 l 622 621 b 394 717 571 681 494 717 b 49 351 206 717 49 554 b 394 -14 49 147 206 -14 z m 429 150 b 229 351 317 150 229 240 b 429 551 229 463 317 551 b 628 351 540 551 628 463 b 429 150 628 240 540 150 z "},"á":{"ha":899,"x_min":0,"x_max":0,"o":"m 368 807 l 525 807 l 706 969 l 549 1081 z m 394 -14 b 631 90 499 -14 578 25 l 635 0 l 803 0 l 803 700 l 622 700 l 622 621 b 394 717 571 681 494 717 b 49 351 206 717 49 554 b 394 -14 49 147 206 -14 z m 429 150 b 229 351 317 150 229 240 b 429 551 229 463 317 551 b 628 351 540 551 628 463 b 429 150 628 240 540 150 z "},"ă":{"ha":899,"x_min":0,"x_max":0,"o":"m 471 794 b 706 1040 599 794 706 906 l 706 1075 l 568 1075 l 568 1040 b 460 932 568 981 519 932 b 353 1040 401 932 353 981 l 353 1075 l 215 1075 l 215 1040 b 471 794 215 900 324 794 z m 394 -14 b 631 90 499 -14 578 25 l 635 0 l 803 0 l 803 700 l 622 700 l 622 621 b 394 717 571 681 494 717 b 49 351 206 717 49 554 b 394 -14 49 147 206 -14 z m 429 150 b 229 351 317 150 229 240 b 429 551 229 463 317 551 b 628 351 540 551 628 463 b 429 150 628 240 540 150 z "},"ǎ":{"ha":899,"x_min":0,"x_max":0,"o":"m 375 796 l 547 796 l 700 1069 l 556 1069 l 461 900 l 367 1069 l 222 1069 z m 394 -14 b 631 90 499 -14 578 25 l 635 0 l 803 0 l 803 700 l 622 700 l 622 621 b 394 717 571 681 494 717 b 49 351 206 717 49 554 b 394 -14 49 147 206 -14 z m 429 150 b 229 351 317 150 229 240 b 429 551 229 463 317 551 b 628 351 540 551 628 463 b 429 150 628 240 540 150 z "},"â":{"ha":899,"x_min":0,"x_max":0,"o":"m 222 796 l 367 796 l 461 965 l 556 796 l 700 796 l 547 1069 l 375 1069 z m 394 -14 b 631 90 499 -14 578 25 l 635 0 l 803 0 l 803 700 l 622 700 l 622 621 b 394 717 571 681 494 717 b 49 351 206 717 49 554 b 394 -14 49 147 206 -14 z m 429 150 b 229 351 317 150 229 240 b 429 551 229 463 317 551 b 628 351 540 551 628 463 b 429 150 628 240 540 150 z "},"ä":{"ha":899,"x_min":0,"x_max":0,"o":"m 321 847 b 415 943 372 847 415 890 b 321 1038 415 994 372 1038 b 225 943 268 1038 225 994 b 321 847 225 890 268 847 z m 601 847 b 696 943 653 847 696 890 b 601 1038 696 994 653 1038 b 506 943 549 1038 506 994 b 601 847 506 890 549 847 z m 394 -14 b 631 90 499 -14 578 25 l 635 0 l 803 0 l 803 700 l 622 700 l 622 621 b 394 717 571 681 494 717 b 49 351 206 717 49 554 b 394 -14 49 147 206 -14 z m 429 150 b 229 351 317 150 229 240 b 429 551 229 463 317 551 b 628 351 540 551 628 463 b 429 150 628 240 540 150 z "},"à":{"ha":899,"x_min":0,"x_max":0,"o":"m 382 801 l 539 801 l 358 1075 l 201 964 z m 394 -14 b 631 90 499 -14 578 25 l 635 0 l 803 0 l 803 700 l 622 700 l 622 621 b 394 717 571 681 494 717 b 49 351 206 717 49 554 b 394 -14 49 147 206 -14 z m 429 150 b 229 351 317 150 229 240 b 429 551 229 463 317 551 b 628 351 540 551 628 463 b 429 150 628 240 540 150 z "},"ā":{"ha":899,"x_min":0,"x_max":0,"o":"m 240 832 l 682 832 l 682 976 l 240 976 z m 394 -14 b 631 90 499 -14 578 25 l 635 0 l 803 0 l 803 700 l 622 700 l 622 621 b 394 717 571 681 494 717 b 49 351 206 717 49 554 b 394 -14 49 147 206 -14 z m 429 150 b 229 351 317 150 229 240 b 429 551 229 463 317 551 b 628 351 540 551 628 463 b 429 150 628 240 540 150 z "},"ą":{"ha":899,"x_min":0,"x_max":0,"o":"m 779 -147 b 703 -187 754 -176 726 -187 b 649 -128 672 -187 649 -168 b 803 0 649 -74 692 -12 l 803 700 l 622 700 l 622 621 b 394 717 571 681 494 717 b 49 351 206 717 49 554 b 394 -14 49 147 206 -14 b 631 90 499 -14 578 25 l 635 4 b 535 -162 567 -36 535 -97 b 703 -325 535 -265 614 -325 b 867 -246 760 -325 821 -300 z m 429 150 b 229 351 317 150 229 240 b 429 551 229 463 317 551 b 628 351 540 551 628 463 b 429 150 628 240 540 150 z "},"å":{"ha":899,"x_min":0,"x_max":0,"o":"m 461 769 b 681 989 583 769 681 867 b 461 1208 681 1114 581 1208 b 242 989 336 1208 242 1108 b 461 769 242 864 342 769 z m 461 885 b 357 989 401 885 357 932 b 461 1093 357 1049 404 1093 b 565 989 521 1093 565 1046 b 461 885 565 929 518 885 z m 394 -14 b 631 90 499 -14 578 25 l 635 0 l 803 0 l 803 700 l 622 700 l 622 621 b 394 717 571 681 494 717 b 49 351 206 717 49 554 b 394 -14 49 147 206 -14 z m 429 150 b 229 351 317 150 229 240 b 429 551 229 463 317 551 b 628 351 540 551 628 463 b 429 150 628 240 540 150 z "},"ã":{"ha":899,"x_min":0,"x_max":0,"o":"m 288 778 b 360 871 300 842 324 871 b 572 786 422 871 458 786 b 765 972 675 786 736 854 l 639 1024 b 561 925 635 961 611 925 b 346 1015 483 925 456 1015 b 157 832 257 1015 188 956 z m 394 -14 b 631 90 499 -14 578 25 l 635 0 l 803 0 l 803 700 l 622 700 l 622 621 b 394 717 571 681 494 717 b 49 351 206 717 49 554 b 394 -14 49 147 206 -14 z m 429 150 b 229 351 317 150 229 240 b 429 551 229 463 317 551 b 628 351 540 551 628 463 b 429 150 628 240 540 150 z "},"æ":{"ha":1272,"x_min":0,"x_max":0,"o":"m 1224 357 b 864 714 1221 571 1065 714 b 608 617 761 714 672 678 b 356 700 554 672 468 700 l 133 700 l 133 564 l 353 564 b 493 450 436 564 493 531 l 493 439 l 133 439 b 49 222 79 371 49 300 b 322 -14 49 65 174 -14 b 575 118 410 -14 499 14 b 869 -14 640 38 744 -14 b 1192 174 1017 -14 1135 58 l 1047 233 b 868 132 1010 168 942 132 b 671 318 765 132 685 204 l 1222 318 z m 865 571 b 1032 456 947 571 1003 526 l 689 456 b 865 571 719 526 781 571 z m 331 125 b 229 229 278 125 229 149 b 263 318 229 253 233 288 l 493 318 l 493 228 b 331 125 457 165 400 125 z "},"b":{"ha":896,"x_min":0,"x_max":0,"o":"m 497 -14 b 847 351 693 -14 847 147 b 497 717 847 554 693 717 b 274 621 411 717 328 685 l 274 1069 l 93 1069 l 93 0 l 261 0 l 265 90 b 497 -14 318 25 400 -14 z m 467 146 b 267 351 356 146 267 236 b 467 556 267 467 356 556 b 667 351 579 556 667 467 b 467 146 667 236 579 146 z "},"c":{"ha":638,"x_min":0,"x_max":0,"o":"m 419 -14 b 568 17 472 -14 524 -3 l 568 218 b 419 151 533 178 481 151 b 222 350 306 151 222 239 b 419 550 222 461 306 550 b 568 482 481 550 533 524 l 568 683 b 419 714 524 703 472 714 b 49 350 208 714 49 553 b 419 -14 49 147 208 -14 z "},"ć":{"ha":638,"x_min":0,"x_max":0,"o":"m 299 807 l 456 807 l 636 969 l 479 1081 z m 419 -14 b 568 17 472 -14 524 -3 l 568 218 b 419 151 533 178 481 151 b 222 350 306 151 222 239 b 419 550 222 461 306 550 b 568 482 481 550 533 524 l 568 683 b 419 714 524 703 472 714 b 49 350 208 714 49 553 b 419 -14 49 147 208 -14 z "},"č":{"ha":638,"x_min":0,"x_max":0,"o":"m 306 796 l 478 796 l 631 1069 l 486 1069 l 392 900 l 297 1069 l 153 1069 z m 419 -14 b 568 17 472 -14 524 -3 l 568 218 b 419 151 533 178 481 151 b 222 350 306 151 222 239 b 419 550 222 461 306 550 b 568 482 481 550 533 524 l 568 683 b 419 714 524 703 472 714 b 49 350 208 714 49 553 b 419 -14 49 147 208 -14 z "},"ç":{"ha":638,"x_min":0,"x_max":0,"o":"m 419 550 b 568 482 481 550 533 524 l 568 683 b 419 714 524 703 472 714 b 49 350 208 714 49 553 b 336 -6 49 175 168 31 l 263 -108 l 326 -172 b 378 -150 336 -160 358 -150 b 439 -212 407 -150 439 -169 b 379 -274 439 -251 411 -274 b 301 -226 353 -274 322 -258 l 240 -308 b 381 -367 276 -349 329 -367 b 539 -212 479 -367 539 -299 b 404 -60 539 -131 485 -71 l 446 -12 b 568 17 489 -10 531 0 l 568 218 b 419 151 533 178 481 151 b 222 350 306 151 222 239 b 419 550 222 461 306 550 z "},"ċ":{"ha":638,"x_min":0,"x_max":0,"o":"m 392 842 b 486 938 443 842 486 885 b 392 1032 486 989 443 1032 b 296 938 339 1032 296 989 b 392 842 296 885 339 842 z m 419 -14 b 568 17 472 -14 524 -3 l 568 218 b 419 151 533 178 481 151 b 222 350 306 151 222 239 b 419 550 222 461 306 550 b 568 482 481 550 533 524 l 568 683 b 419 714 524 703 472 714 b 49 350 208 714 49 553 b 419 -14 49 147 208 -14 z "},"d":{"ha":896,"x_min":0,"x_max":0,"o":"m 399 -14 b 631 90 496 -14 578 25 l 635 0 l 803 0 l 803 1069 l 622 1069 l 622 621 b 399 717 568 685 485 717 b 49 351 203 717 49 554 b 399 -14 49 147 203 -14 z m 429 146 b 229 351 317 146 229 236 b 429 556 229 467 317 556 b 629 351 540 556 629 467 b 429 146 629 236 540 146 z "},"ð":{"ha":818,"x_min":0,"x_max":0,"o":"m 665 585 l 492 861 l 564 888 l 515 1017 l 417 981 l 361 1069 l 154 1069 l 249 919 l 158 886 l 207 757 l 322 799 l 385 700 b 56 339 188 689 56 528 b 404 -17 56 146 208 -17 b 750 342 606 -17 750 150 b 665 585 750 415 721 496 z m 403 164 b 231 342 306 164 231 244 b 403 519 231 439 306 519 b 575 342 500 519 575 439 b 403 164 575 244 500 164 z "},"ď":{"ha":1022,"x_min":0,"x_max":0,"o":"m 399 -14 b 631 90 496 -14 578 25 l 635 0 l 803 0 l 803 1069 l 622 1069 l 622 621 b 399 717 568 685 485 717 b 49 351 203 717 49 554 b 399 -14 49 147 203 -14 z m 974 657 l 1113 1069 l 900 1069 l 858 657 z m 429 146 b 229 351 317 146 229 236 b 429 556 229 467 317 556 b 629 351 540 556 629 467 b 429 146 629 236 540 146 z "},"đ":{"ha":896,"x_min":0,"x_max":0,"o":"m 868 961 l 803 961 l 803 1069 l 622 1069 l 622 961 l 301 961 l 301 831 l 622 831 l 622 621 b 399 717 568 685 485 717 b 49 351 203 717 49 554 b 399 -14 49 147 203 -14 b 631 90 496 -14 578 25 l 635 0 l 803 0 l 803 831 l 868 831 z m 429 146 b 229 351 317 146 229 236 b 429 556 229 467 317 556 b 629 351 540 556 629 467 b 429 146 629 236 540 146 z "},"e":{"ha":826,"x_min":0,"x_max":0,"o":"m 778 357 b 418 714 775 571 619 714 b 49 350 204 714 49 553 b 424 -14 49 147 201 -14 b 746 174 571 -14 689 58 l 601 233 b 422 132 564 168 496 132 b 225 318 319 132 239 204 l 776 318 z m 419 571 b 586 456 501 571 557 526 l 243 456 b 419 571 274 526 335 571 z "},"é":{"ha":826,"x_min":0,"x_max":0,"o":"m 649 969 l 492 1081 l 311 807 l 468 807 z m 778 357 b 418 714 775 571 619 714 b 49 350 204 714 49 553 b 424 -14 49 147 201 -14 b 746 174 571 -14 689 58 l 601 233 b 422 132 564 168 496 132 b 225 318 319 132 239 204 l 776 318 z m 419 571 b 586 456 501 571 557 526 l 243 456 b 419 571 274 526 335 571 z "},"ě":{"ha":826,"x_min":0,"x_max":0,"o":"m 490 796 l 643 1069 l 499 1069 l 404 900 l 310 1069 l 165 1069 l 318 796 z m 778 357 b 418 714 775 571 619 714 b 49 350 204 714 49 553 b 424 -14 49 147 201 -14 b 746 174 571 -14 689 58 l 601 233 b 422 132 564 168 496 132 b 225 318 319 132 239 204 l 776 318 z m 419 571 b 586 456 501 571 557 526 l 243 456 b 419 571 274 526 335 571 z "},"ê":{"ha":826,"x_min":0,"x_max":0,"o":"m 404 965 l 499 796 l 643 796 l 490 1069 l 318 1069 l 165 796 l 310 796 z m 778 357 b 418 714 775 571 619 714 b 49 350 204 714 49 553 b 424 -14 49 147 201 -14 b 746 174 571 -14 689 58 l 601 233 b 422 132 564 168 496 132 b 225 318 319 132 239 204 l 776 318 z m 419 571 b 586 456 501 571 557 526 l 243 456 b 419 571 274 526 335 571 z "},"ë":{"ha":826,"x_min":0,"x_max":0,"o":"m 264 847 b 358 943 315 847 358 890 b 264 1038 358 994 315 1038 b 168 943 211 1038 168 994 b 264 847 168 890 211 847 z m 544 847 b 639 943 596 847 639 890 b 544 1038 639 994 596 1038 b 449 943 492 1038 449 994 b 544 847 449 890 492 847 z m 778 357 b 418 714 775 571 619 714 b 49 350 204 714 49 553 b 424 -14 49 147 201 -14 b 746 174 571 -14 689 58 l 601 233 b 422 132 564 168 496 132 b 225 318 319 132 239 204 l 776 318 z m 419 571 b 586 456 501 571 557 526 l 243 456 b 419 571 274 526 335 571 z "},"ė":{"ha":826,"x_min":0,"x_max":0,"o":"m 404 842 b 499 938 456 842 499 885 b 404 1032 499 989 456 1032 b 308 938 351 1032 308 989 b 404 842 308 885 351 842 z m 778 357 b 418 714 775 571 619 714 b 49 350 204 714 49 553 b 424 -14 49 147 201 -14 b 746 174 571 -14 689 58 l 601 233 b 422 132 564 168 496 132 b 225 318 319 132 239 204 l 776 318 z m 419 571 b 586 456 501 571 557 526 l 243 456 b 419 571 274 526 335 571 z "},"è":{"ha":826,"x_min":0,"x_max":0,"o":"m 482 801 l 301 1075 l 144 964 l 325 801 z m 778 357 b 418 714 775 571 619 714 b 49 350 204 714 49 553 b 424 -14 49 147 201 -14 b 746 174 571 -14 689 58 l 601 233 b 422 132 564 168 496 132 b 225 318 319 132 239 204 l 776 318 z m 419 571 b 586 456 501 571 557 526 l 243 456 b 419 571 274 526 335 571 z "},"ē":{"ha":826,"x_min":0,"x_max":0,"o":"m 625 976 l 183 976 l 183 832 l 625 832 z m 778 357 b 418 714 775 571 619 714 b 49 350 204 714 49 553 b 424 -14 49 147 201 -14 b 746 174 571 -14 689 58 l 601 233 b 422 132 564 168 496 132 b 225 318 319 132 239 204 l 776 318 z m 419 571 b 586 456 501 571 557 526 l 243 456 b 419 571 274 526 335 571 z "},"ę":{"ha":826,"x_min":0,"x_max":0,"o":"m 778 357 b 418 714 775 571 619 714 b 49 350 204 714 49 553 b 313 0 49 183 153 44 b 239 -149 263 -39 239 -92 b 407 -311 239 -251 318 -311 b 571 -232 464 -311 525 -286 l 483 -133 b 407 -174 458 -162 431 -174 b 353 -114 376 -174 353 -154 b 415 -14 353 -78 371 -40 l 424 -14 b 746 174 571 -14 689 58 l 601 233 b 422 132 564 168 496 132 b 225 318 319 132 239 204 l 776 318 z m 419 571 b 586 456 501 571 557 526 l 243 456 b 419 571 274 526 335 571 z "},"ẽ":{"ha":826,"x_min":0,"x_max":0,"o":"m 303 871 b 515 786 365 871 401 786 b 708 972 618 786 679 854 l 582 1024 b 504 925 578 961 554 925 b 289 1015 426 925 399 1015 b 100 832 200 1015 131 956 l 231 778 b 303 871 243 842 267 871 z m 778 357 b 418 714 775 571 619 714 b 49 350 204 714 49 553 b 424 -14 49 147 201 -14 b 746 174 571 -14 689 58 l 601 233 b 422 132 564 168 496 132 b 225 318 319 132 239 204 l 776 318 z m 419 571 b 586 456 501 571 557 526 l 243 456 b 419 571 274 526 335 571 z "},"f":{"ha":513,"x_min":0,"x_max":0,"o":"m 138 0 l 317 0 l 317 554 l 492 554 l 492 700 l 317 700 l 317 817 b 407 922 317 881 353 922 b 489 896 436 922 468 913 l 489 1061 b 378 1083 469 1076 426 1083 b 138 838 231 1083 138 988 l 138 700 l 19 700 l 19 554 l 138 554 z "},"g":{"ha":903,"x_min":0,"x_max":0,"o":"m 422 -333 b 807 42 642 -333 807 -185 l 807 700 l 625 700 l 625 619 b 403 714 575 678 501 714 b 49 350 204 714 49 553 b 407 -7 49 149 203 -7 b 625 83 503 -7 575 26 l 625 42 b 417 -172 625 -87 535 -172 b 193 -47 331 -172 246 -128 l 79 -161 b 422 -333 158 -276 297 -333 z m 429 149 b 229 350 317 149 229 239 b 429 551 229 463 317 551 b 631 350 540 551 631 463 b 429 149 631 239 540 149 z "},"ğ":{"ha":903,"x_min":0,"x_max":0,"o":"m 465 794 b 700 1040 593 794 700 906 l 700 1075 l 563 1075 l 563 1040 b 454 932 563 981 514 932 b 347 1040 396 932 347 981 l 347 1075 l 210 1075 l 210 1040 b 465 794 210 900 318 794 z m 422 -333 b 807 42 642 -333 807 -185 l 807 700 l 625 700 l 625 619 b 403 714 575 678 501 714 b 49 350 204 714 49 553 b 407 -7 49 149 203 -7 b 625 83 503 -7 575 26 l 625 42 b 417 -172 625 -87 535 -172 b 193 -47 331 -172 246 -128 l 79 -161 b 422 -333 158 -276 297 -333 z m 429 149 b 229 350 317 149 229 239 b 429 551 229 463 317 551 b 631 350 540 551 631 463 b 429 149 631 239 540 149 z "},"ģ":{"ha":903,"x_min":0,"x_max":0,"o":"m 349 818 l 561 818 l 561 1161 l 460 1161 z m 422 -333 b 807 42 642 -333 807 -185 l 807 700 l 625 700 l 625 619 b 403 714 575 678 501 714 b 49 350 204 714 49 553 b 407 -7 49 149 203 -7 b 625 83 503 -7 575 26 l 625 42 b 417 -172 625 -87 535 -172 b 193 -47 331 -172 246 -128 l 79 -161 b 422 -333 158 -276 297 -333 z m 429 149 b 229 350 317 149 229 239 b 429 551 229 463 317 551 b 631 350 540 551 631 463 b 429 149 631 239 540 149 z "},"ġ":{"ha":903,"x_min":0,"x_max":0,"o":"m 456 842 b 550 938 507 842 550 885 b 456 1032 550 989 507 1032 b 360 938 403 1032 360 989 b 456 842 360 885 403 842 z m 422 -333 b 807 42 642 -333 807 -185 l 807 700 l 625 700 l 625 619 b 403 714 575 678 501 714 b 49 350 204 714 49 553 b 407 -7 49 149 203 -7 b 625 83 503 -7 575 26 l 625 42 b 417 -172 625 -87 535 -172 b 193 -47 331 -172 246 -128 l 79 -161 b 422 -333 158 -276 297 -333 z m 429 149 b 229 350 317 149 229 239 b 429 551 229 463 317 551 b 631 350 540 551 631 463 b 429 149 631 239 540 149 z "},"h":{"ha":786,"x_min":0,"x_max":0,"o":"m 93 0 l 272 0 l 272 432 b 407 553 274 500 331 553 b 531 433 476 553 531 501 l 531 0 l 711 0 l 711 453 b 456 714 711 599 601 714 b 272 636 382 714 319 683 l 272 1069 l 93 1069 z "},"ħ":{"ha":786,"x_min":0,"x_max":0,"o":"m 456 714 b 272 636 382 714 319 683 l 272 836 l 569 836 l 569 967 l 272 967 l 272 1069 l 93 1069 l 93 967 l 3 967 l 3 836 l 93 836 l 93 0 l 272 0 l 272 432 b 407 553 274 500 331 553 b 531 433 476 553 531 501 l 531 0 l 711 0 l 711 453 b 456 714 711 599 601 714 z "},"i":{"ha":368,"x_min":0,"x_max":0,"o":"m 183 824 b 289 928 242 824 289 869 b 183 1032 289 986 242 1032 b 78 928 126 1032 78 986 b 183 824 78 869 126 824 z m 94 0 l 272 0 l 272 700 l 94 700 z "},"ı":{"ha":367,"x_min":0,"x_max":0,"o":"m 93 0 l 271 0 l 271 700 l 93 700 z "},"í":{"ha":367,"x_min":0,"x_max":0,"o":"m 90 807 l 247 807 l 428 969 l 271 1081 z m 93 0 l 271 0 l 271 700 l 93 700 z "},"ǐ":{"ha":367,"x_min":0,"x_max":0,"o":"m 97 796 l 269 796 l 422 1069 l 278 1069 l 183 900 l 89 1069 l -56 1069 z m 93 0 l 271 0 l 271 700 l 93 700 z "},"î":{"ha":367,"x_min":0,"x_max":0,"o":"m -56 796 l 89 796 l 183 965 l 278 796 l 422 796 l 269 1069 l 97 1069 z m 93 0 l 271 0 l 271 700 l 93 700 z "},"ï":{"ha":367,"x_min":0,"x_max":0,"o":"m 43 847 b 138 943 94 847 138 890 b 43 1038 138 994 94 1038 b -53 943 -10 1038 -53 994 b 43 847 -53 890 -10 847 z m 324 847 b 418 943 375 847 418 890 b 324 1038 418 994 375 1038 b 228 943 271 1038 228 994 b 324 847 228 890 271 847 z m 93 0 l 271 0 l 271 700 l 93 700 z "},"ì":{"ha":367,"x_min":0,"x_max":0,"o":"m 104 801 l 261 801 l 81 1075 l -76 964 z m 93 0 l 271 0 l 271 700 l 93 700 z "},"ī":{"ha":367,"x_min":0,"x_max":0,"o":"m -37 832 l 404 832 l 404 976 l -37 976 z m 93 0 l 271 0 l 271 700 l 93 700 z "},"į":{"ha":367,"x_min":0,"x_max":0,"o":"m 183 842 b 278 938 235 842 278 885 b 183 1032 278 989 235 1032 b 88 938 131 1032 88 989 b 183 842 88 885 131 842 z m 247 -147 b 171 -187 222 -176 194 -187 b 117 -128 140 -187 117 -168 b 271 0 117 -74 160 -12 l 271 700 l 93 700 l 93 0 l 96 0 b 3 -162 33 -40 3 -100 b 171 -325 3 -265 82 -325 b 335 -246 228 -325 289 -300 z "},"ĩ":{"ha":367,"x_min":0,"x_max":0,"o":"m 10 778 b 82 871 22 842 46 871 b 294 786 144 871 181 786 b 488 972 397 786 458 854 l 361 1024 b 283 925 357 961 333 925 b 68 1015 206 925 178 1015 b -121 832 -21 1015 -90 956 z m 93 0 l 271 0 l 271 700 l 93 700 z "},"j":{"ha":368,"x_min":0,"x_max":0,"o":"m 185 824 b 289 928 242 824 289 869 b 185 1032 289 986 242 1032 b 78 928 126 1032 78 986 b 185 824 78 869 126 824 z m -72 -319 l 33 -319 b 274 -74 181 -319 274 -224 l 274 700 l 94 700 l 94 -53 b 4 -158 94 -117 58 -158 l -72 -158 z "},"k":{"ha":768,"x_min":0,"x_max":0,"o":"m 761 700 l 529 700 l 274 406 l 274 1069 l 93 1069 l 93 0 l 274 0 l 274 381 l 529 0 l 761 0 l 479 394 z "},"ķ":{"ha":768,"x_min":0,"x_max":0,"o":"m 761 700 l 529 700 l 274 406 l 274 1069 l 93 1069 l 93 0 l 274 0 l 274 381 l 529 0 l 761 0 l 479 394 z m 243 -412 l 317 -412 l 469 -97 l 285 -97 z "},"l":{"ha":368,"x_min":0,"x_max":0,"o":"m 93 0 l 272 0 l 272 1069 l 93 1069 z "},"ĺ":{"ha":368,"x_min":0,"x_max":0,"o":"m 90 1176 l 247 1176 l 428 1339 l 271 1450 z m 93 0 l 272 0 l 272 1069 l 93 1069 z "},"ľ":{"ha":526,"x_min":0,"x_max":0,"o":"m 93 0 l 272 0 l 272 1069 l 93 1069 z m 478 657 l 617 1069 l 404 1069 l 363 657 z "},"ļ":{"ha":368,"x_min":0,"x_max":0,"o":"m 93 0 l 272 0 l 272 1069 l 93 1069 z m 49 -412 l 122 -412 l 275 -97 l 90 -97 z "},"ł":{"ha":368,"x_min":0,"x_max":0,"o":"m 386 556 l 338 685 l 272 661 l 272 1069 l 93 1069 l 93 596 l -19 554 l 29 425 l 93 449 l 93 0 l 272 0 l 272 514 z "},"m":{"ha":1185,"x_min":0,"x_max":0,"o":"m 93 0 l 274 0 l 274 421 b 392 553 274 493 319 553 b 511 429 463 553 511 499 l 511 0 l 692 0 l 692 421 b 813 553 692 493 739 553 b 929 429 881 553 929 499 l 929 0 l 1110 0 l 1110 443 b 851 714 1110 596 1000 714 b 643 604 761 714 689 672 b 443 714 594 672 522 714 b 274 631 375 714 315 682 l 274 700 l 93 700 z "},"ḿ":{"ha":1185,"x_min":0,"x_max":0,"o":"m 497 807 l 654 807 l 835 969 l 678 1081 z m 93 0 l 274 0 l 274 421 b 392 553 274 493 319 553 b 511 429 463 553 511 499 l 511 0 l 692 0 l 692 421 b 813 553 692 493 739 553 b 929 429 881 553 929 499 l 929 0 l 1110 0 l 1110 443 b 851 714 1110 596 1000 714 b 643 604 761 714 689 672 b 443 714 594 672 522 714 b 274 631 375 714 315 682 l 274 700 l 93 700 z "},"n":{"ha":786,"x_min":0,"x_max":0,"o":"m 93 0 l 272 0 l 272 431 b 404 556 274 501 329 556 b 531 431 475 556 531 504 l 531 0 l 711 0 l 711 453 b 460 714 711 599 600 714 b 272 636 389 714 322 686 l 272 700 l 93 700 z "},"ń":{"ha":786,"x_min":0,"x_max":0,"o":"m 297 807 l 454 807 l 635 969 l 478 1081 z m 93 0 l 272 0 l 272 431 b 404 556 274 501 329 556 b 531 431 475 556 531 504 l 531 0 l 711 0 l 711 453 b 460 714 711 599 600 714 b 272 636 389 714 322 686 l 272 700 l 93 700 z "},"ň":{"ha":786,"x_min":0,"x_max":0,"o":"m 304 796 l 476 796 l 629 1069 l 485 1069 l 390 900 l 296 1069 l 151 1069 z m 93 0 l 272 0 l 272 431 b 404 556 274 501 329 556 b 531 431 475 556 531 504 l 531 0 l 711 0 l 711 453 b 460 714 711 599 600 714 b 272 636 389 714 322 686 l 272 700 l 93 700 z "},"ņ":{"ha":786,"x_min":0,"x_max":0,"o":"m 93 0 l 272 0 l 272 431 b 404 556 274 501 329 556 b 531 431 475 556 531 504 l 531 0 l 711 0 l 711 453 b 460 714 711 599 600 714 b 272 636 389 714 322 686 l 272 700 l 93 700 z m 256 -412 l 329 -412 l 482 -97 l 297 -97 z "},"ṅ":{"ha":786,"x_min":0,"x_max":0,"o":"m 390 842 b 485 938 442 842 485 885 b 390 1032 485 989 442 1032 b 294 938 338 1032 294 989 b 390 842 294 885 338 842 z m 93 0 l 272 0 l 272 431 b 404 556 274 501 329 556 b 531 431 475 556 531 504 l 531 0 l 711 0 l 711 453 b 460 714 711 599 600 714 b 272 636 389 714 322 686 l 272 700 l 93 700 z "},"ŋ":{"ha":806,"x_min":0,"x_max":0,"o":"m 460 714 b 272 636 389 714 322 686 l 272 700 l 93 700 l 93 0 l 272 0 l 272 431 b 404 556 274 501 329 556 b 531 431 475 556 531 504 l 531 0 b 451 -144 531 -82 535 -144 l 394 -144 l 394 -262 l 456 -262 b 711 -65 519 -262 711 -265 l 711 453 b 460 714 711 599 600 714 z "},"ñ":{"ha":786,"x_min":0,"x_max":0,"o":"m 217 778 b 289 871 229 842 253 871 b 501 786 351 871 388 786 b 694 972 604 786 665 854 l 568 1024 b 490 925 564 961 540 925 b 275 1015 413 925 385 1015 b 86 832 186 1015 117 956 z m 93 0 l 272 0 l 272 431 b 404 556 274 501 329 556 b 531 431 475 556 531 504 l 531 0 l 711 0 l 711 453 b 460 714 711 599 600 714 b 272 636 389 714 322 686 l 272 700 l 93 700 z "},"o":{"ha":838,"x_min":0,"x_max":0,"o":"m 419 -14 b 789 350 628 -14 789 147 b 419 714 789 553 628 714 b 49 350 208 714 49 553 b 419 -14 49 147 208 -14 z m 419 153 b 221 350 308 153 221 240 b 419 546 221 460 308 546 b 614 350 526 546 614 460 b 419 153 614 240 526 153 z "},"ó":{"ha":838,"x_min":0,"x_max":0,"o":"m 326 807 l 483 807 l 664 969 l 507 1081 z m 419 -14 b 789 350 628 -14 789 147 b 419 714 789 553 628 714 b 49 350 208 714 49 553 b 419 -14 49 147 208 -14 z m 419 153 b 221 350 308 153 221 240 b 419 546 221 460 308 546 b 614 350 526 546 614 460 b 419 153 614 240 526 153 z "},"ǒ":{"ha":838,"x_min":0,"x_max":0,"o":"m 333 796 l 506 796 l 658 1069 l 514 1069 l 419 900 l 325 1069 l 181 1069 z m 419 -14 b 789 350 628 -14 789 147 b 419 714 789 553 628 714 b 49 350 208 714 49 553 b 419 -14 49 147 208 -14 z m 419 153 b 221 350 308 153 221 240 b 419 546 221 460 308 546 b 614 350 526 546 614 460 b 419 153 614 240 526 153 z "},"ô":{"ha":838,"x_min":0,"x_max":0,"o":"m 181 796 l 325 796 l 419 965 l 514 796 l 658 796 l 506 1069 l 333 1069 z m 419 -14 b 789 350 628 -14 789 147 b 419 714 789 553 628 714 b 49 350 208 714 49 553 b 419 -14 49 147 208 -14 z m 419 153 b 221 350 308 153 221 240 b 419 546 221 460 308 546 b 614 350 526 546 614 460 b 419 153 614 240 526 153 z "},"ö":{"ha":838,"x_min":0,"x_max":0,"o":"m 279 847 b 374 943 331 847 374 890 b 279 1038 374 994 331 1038 b 183 943 226 1038 183 994 b 279 847 183 890 226 847 z m 560 847 b 654 943 611 847 654 890 b 560 1038 654 994 611 1038 b 464 943 507 1038 464 994 b 560 847 464 890 507 847 z m 419 -14 b 789 350 628 -14 789 147 b 419 714 789 553 628 714 b 49 350 208 714 49 553 b 419 -14 49 147 208 -14 z m 419 153 b 221 350 308 153 221 240 b 419 546 221 460 308 546 b 614 350 526 546 614 460 b 419 153 614 240 526 153 z "},"ò":{"ha":838,"x_min":0,"x_max":0,"o":"m 340 801 l 497 801 l 317 1075 l 160 964 z m 419 -14 b 789 350 628 -14 789 147 b 419 714 789 553 628 714 b 49 350 208 714 49 553 b 419 -14 49 147 208 -14 z m 419 153 b 221 350 308 153 221 240 b 419 546 221 460 308 546 b 614 350 526 546 614 460 b 419 153 614 240 526 153 z "},"ő":{"ha":838,"x_min":0,"x_max":0,"o":"m 303 801 l 483 964 l 326 1075 l 146 801 z m 608 801 l 789 964 l 632 1075 l 451 801 z m 419 -14 b 789 350 628 -14 789 147 b 419 714 789 553 628 714 b 49 350 208 714 49 553 b 419 -14 49 147 208 -14 z m 419 153 b 221 350 308 153 221 240 b 419 546 221 460 308 546 b 614 350 526 546 614 460 b 419 153 614 240 526 153 z "},"ō":{"ha":838,"x_min":0,"x_max":0,"o":"m 199 832 l 640 832 l 640 976 l 199 976 z m 419 -14 b 789 350 628 -14 789 147 b 419 714 789 553 628 714 b 49 350 208 714 49 553 b 419 -14 49 147 208 -14 z m 419 153 b 221 350 308 153 221 240 b 419 546 221 460 308 546 b 614 350 526 546 614 460 b 419 153 614 240 526 153 z "},"ø":{"ha":838,"x_min":0,"x_max":0,"o":"m 801 651 l 722 732 l 636 646 b 419 714 576 689 501 714 b 49 350 208 714 49 553 b 122 131 49 267 75 190 l 39 47 l 118 -32 l 203 53 b 419 -14 263 11 338 -14 b 789 350 628 -14 789 147 b 718 568 789 432 763 507 z m 221 350 b 419 546 221 460 308 546 b 513 522 453 546 485 538 l 246 254 b 221 350 229 282 221 315 z m 614 350 b 419 153 614 240 526 153 b 325 175 385 153 353 161 l 592 442 b 614 350 606 414 614 383 z "},"ǿ":{"ha":838,"x_min":0,"x_max":0,"o":"m 664 969 l 507 1081 l 326 807 l 483 807 z m 801 651 l 722 732 l 636 646 b 419 714 576 689 501 714 b 49 350 208 714 49 553 b 122 131 49 267 75 190 l 39 47 l 118 -32 l 203 53 b 419 -14 263 11 338 -14 b 789 350 628 -14 789 147 b 718 568 789 432 763 507 z m 221 350 b 419 546 221 460 308 546 b 513 522 453 546 485 538 l 246 254 b 221 350 229 282 221 315 z m 614 350 b 419 153 614 240 526 153 b 325 175 385 153 353 161 l 592 442 b 614 350 606 414 614 383 z "},"õ":{"ha":838,"x_min":0,"x_max":0,"o":"m 246 778 b 318 871 258 842 282 871 b 531 786 381 871 417 786 b 724 972 633 786 694 854 l 597 1024 b 519 925 593 961 569 925 b 304 1015 442 925 414 1015 b 115 832 215 1015 146 956 z m 419 -14 b 789 350 628 -14 789 147 b 419 714 789 553 628 714 b 49 350 208 714 49 553 b 419 -14 49 147 208 -14 z m 419 153 b 221 350 308 153 221 240 b 419 546 221 460 308 546 b 614 350 526 546 614 460 b 419 153 614 240 526 153 z "},"ṍ":{"ha":838,"x_min":0,"x_max":0,"o":"m 326 1131 l 483 1131 l 664 1293 l 507 1404 z m 246 778 b 318 871 258 842 282 871 b 531 786 381 871 417 786 b 724 972 633 786 694 854 l 597 1024 b 519 925 593 961 569 925 b 304 1015 442 925 414 1015 b 115 832 215 1015 146 956 z m 419 -14 b 789 350 628 -14 789 147 b 419 714 789 553 628 714 b 49 350 208 714 49 553 b 419 -14 49 147 208 -14 z m 419 153 b 221 350 308 153 221 240 b 419 546 221 460 308 546 b 614 350 526 546 614 460 b 419 153 614 240 526 153 z "},"œ":{"ha":1392,"x_min":0,"x_max":0,"o":"m 1343 357 b 983 714 1340 571 1185 714 b 700 589 867 714 767 665 b 419 714 633 665 533 714 b 49 350 208 714 49 553 b 419 -14 49 147 208 -14 b 700 111 533 -14 633 35 b 989 -14 767 35 868 -14 b 1311 174 1136 -14 1254 58 l 1167 233 b 988 132 1129 168 1061 132 b 790 318 885 132 804 204 l 1342 318 z m 985 571 b 1151 456 1067 571 1122 526 l 808 456 b 985 571 839 526 900 571 z m 419 153 b 221 350 308 153 221 240 b 419 546 221 460 308 546 b 614 350 526 546 614 460 b 419 153 614 240 526 153 z "},"p":{"ha":889,"x_min":0,"x_max":0,"o":"m 93 -319 l 274 -319 l 274 75 b 496 -14 329 19 404 -14 b 840 350 685 -14 840 147 b 496 714 840 553 685 714 b 274 625 404 714 329 681 l 274 700 l 93 700 z m 463 150 b 263 350 353 150 263 239 b 463 550 263 461 353 550 b 661 350 572 550 661 461 b 463 150 661 239 572 150 z "},"þ":{"ha":907,"x_min":0,"x_max":0,"o":"m 111 -319 l 292 -319 l 292 75 b 514 -14 347 19 422 -14 b 858 350 703 -14 858 147 b 514 714 858 553 703 714 b 292 625 422 714 347 681 l 292 1069 l 111 1069 z m 481 150 b 281 350 371 150 281 239 b 481 550 281 461 371 550 b 679 350 590 550 679 461 b 481 150 679 239 590 150 z "},"q":{"ha":892,"x_min":0,"x_max":0,"o":"m 615 -319 l 796 -319 l 796 700 l 615 700 l 615 625 b 393 714 560 681 485 714 b 49 350 204 714 49 553 b 393 -14 49 147 204 -14 b 615 75 485 -14 560 19 z m 426 150 b 228 350 317 150 228 239 b 426 550 228 461 317 550 b 626 350 536 550 626 461 b 426 150 626 239 536 150 z "},"r":{"ha":528,"x_min":0,"x_max":0,"o":"m 486 536 l 486 713 b 461 714 478 714 469 714 b 272 601 372 714 314 672 l 272 700 l 93 700 l 93 0 l 272 0 l 272 310 b 486 536 272 514 379 557 z "},"ŕ":{"ha":528,"x_min":0,"x_max":0,"o":"m 175 807 l 332 807 l 513 969 l 356 1081 z m 486 536 l 486 713 b 461 714 478 714 469 714 b 272 601 372 714 314 672 l 272 700 l 93 700 l 93 0 l 272 0 l 272 310 b 486 536 272 514 379 557 z "},"ř":{"ha":528,"x_min":0,"x_max":0,"o":"m 182 796 l 354 796 l 507 1069 l 363 1069 l 268 900 l 174 1069 l 29 1069 z m 486 536 l 486 713 b 461 714 478 714 469 714 b 272 601 372 714 314 672 l 272 700 l 93 700 l 93 0 l 272 0 l 272 310 b 486 536 272 514 379 557 z "},"ŗ":{"ha":528,"x_min":0,"x_max":0,"o":"m 486 536 l 486 713 b 461 714 478 714 469 714 b 272 601 372 714 314 672 l 272 700 l 93 700 l 93 0 l 272 0 l 272 310 b 486 536 272 514 379 557 z m 49 -412 l 122 -412 l 275 -97 l 90 -97 z "},"s":{"ha":615,"x_min":0,"x_max":0,"o":"m 314 -14 b 576 206 467 -14 576 64 b 367 428 576 346 471 393 b 235 515 285 454 235 468 b 308 575 235 551 264 575 b 449 507 356 575 408 547 l 554 614 b 314 714 500 674 415 714 b 57 500 179 714 57 642 b 257 290 57 378 149 329 b 397 200 340 261 397 249 b 308 133 397 163 364 133 b 140 214 254 133 189 164 l 39 90 b 314 -14 94 35 193 -14 z "},"ś":{"ha":615,"x_min":0,"x_max":0,"o":"m 210 807 l 367 807 l 547 969 l 390 1081 z m 314 -14 b 576 206 467 -14 576 64 b 367 428 576 346 471 393 b 235 515 285 454 235 468 b 308 575 235 551 264 575 b 449 507 356 575 408 547 l 554 614 b 314 714 500 674 415 714 b 57 500 179 714 57 642 b 257 290 57 378 149 329 b 397 200 340 261 397 249 b 308 133 397 163 364 133 b 140 214 254 133 189 164 l 39 90 b 314 -14 94 35 193 -14 z "},"š":{"ha":615,"x_min":0,"x_max":0,"o":"m 217 796 l 389 796 l 542 1069 l 397 1069 l 303 900 l 208 1069 l 64 1069 z m 314 -14 b 576 206 467 -14 576 64 b 367 428 576 346 471 393 b 235 515 285 454 235 468 b 308 575 235 551 264 575 b 449 507 356 575 408 547 l 554 614 b 314 714 500 674 415 714 b 57 500 179 714 57 642 b 257 290 57 378 149 329 b 397 200 340 261 397 249 b 308 133 397 163 364 133 b 140 214 254 133 189 164 l 39 90 b 314 -14 94 35 193 -14 z "},"ş":{"ha":615,"x_min":0,"x_max":0,"o":"m 576 206 b 367 428 576 346 471 393 b 235 515 285 454 235 468 b 308 575 235 551 264 575 b 449 507 356 575 408 547 l 554 614 b 314 714 500 674 415 714 b 57 500 179 714 57 642 b 257 290 57 378 149 329 b 397 200 340 261 397 249 b 308 133 397 163 364 133 b 140 214 254 133 189 164 l 39 90 b 246 -8 83 46 156 6 l 174 -108 l 238 -172 b 289 -150 247 -160 269 -150 b 350 -212 318 -150 350 -169 b 290 -274 350 -251 322 -274 b 213 -226 264 -274 233 -258 l 151 -308 b 292 -367 188 -349 240 -367 b 450 -212 390 -367 450 -299 b 315 -60 450 -131 396 -71 l 358 -11 b 576 206 488 3 576 78 z "},"ș":{"ha":615,"x_min":0,"x_max":0,"o":"m 314 -14 b 576 206 467 -14 576 64 b 367 428 576 346 471 393 b 235 515 285 454 235 468 b 308 575 235 551 264 575 b 449 507 356 575 408 547 l 554 614 b 314 714 500 674 415 714 b 57 500 179 714 57 642 b 257 290 57 378 149 329 b 397 200 340 261 397 249 b 308 133 397 163 364 133 b 140 214 254 133 189 164 l 39 90 b 314 -14 94 35 193 -14 z m 168 -412 l 242 -412 l 394 -97 l 210 -97 z "},"ß":{"ha":801,"x_min":0,"x_max":0,"o":"m 100 -1 l 283 -1 l 283 826 b 388 928 283 878 322 928 b 482 835 439 928 482 896 b 367 726 482 788 456 726 l 367 565 b 590 340 533 565 590 474 b 446 169 590 219 543 169 b 367 178 422 169 396 172 l 367 0 b 460 -8 399 -6 431 -8 b 774 333 653 -8 774 108 b 568 663 774 490 715 607 b 651 839 626 701 651 765 b 381 1083 651 999 535 1083 b 100 826 228 1083 100 1001 z "},"t":{"ha":513,"x_min":0,"x_max":0,"o":"m 167 0 l 347 0 l 347 554 l 483 554 l 483 700 l 347 700 l 347 951 l 167 951 l 167 700 l 29 700 l 29 554 l 167 554 z "},"ŧ":{"ha":513,"x_min":0,"x_max":0,"o":"m 483 554 l 483 700 l 347 700 l 347 951 l 167 951 l 167 700 l 29 700 l 29 554 l 167 554 l 167 415 l 33 415 l 33 285 l 167 285 l 167 0 l 347 0 l 347 285 l 481 285 l 481 415 l 347 415 l 347 554 z "},"ť":{"ha":503,"x_min":0,"x_max":0,"o":"m 540 776 l 679 1189 l 467 1189 l 425 776 z m 167 0 l 347 0 l 347 554 l 483 554 l 483 700 l 347 700 l 347 951 l 167 951 l 167 700 l 29 700 l 29 554 l 167 554 z "},"ţ":{"ha":513,"x_min":0,"x_max":0,"o":"m 347 0 l 347 554 l 483 554 l 483 700 l 347 700 l 347 951 l 167 951 l 167 700 l 29 700 l 29 554 l 167 554 l 167 0 l 206 0 l 128 -108 l 192 -172 b 243 -150 201 -160 224 -150 b 304 -212 272 -150 304 -169 b 244 -274 304 -251 276 -274 b 167 -226 218 -274 188 -258 l 106 -308 b 246 -367 142 -349 194 -367 b 404 -212 344 -367 404 -299 b 269 -60 404 -131 350 -71 l 322 0 z "},"ț":{"ha":513,"x_min":0,"x_max":0,"o":"m 167 0 l 347 0 l 347 554 l 483 554 l 483 700 l 347 700 l 347 951 l 167 951 l 167 700 l 29 700 l 29 554 l 167 554 z m 122 -412 l 196 -412 l 349 -97 l 164 -97 z "},"u":{"ha":760,"x_min":0,"x_max":0,"o":"m 379 -14 b 683 263 571 -14 683 94 l 683 700 l 503 700 l 503 264 b 379 143 503 183 450 143 b 257 264 310 143 257 183 l 257 700 l 76 700 l 76 263 b 379 -14 76 94 189 -14 z "},"ú":{"ha":760,"x_min":0,"x_max":0,"o":"m 288 807 l 444 807 l 625 969 l 468 1081 z m 379 -14 b 683 263 571 -14 683 94 l 683 700 l 503 700 l 503 264 b 379 143 503 183 450 143 b 257 264 310 143 257 183 l 257 700 l 76 700 l 76 263 b 379 -14 76 94 189 -14 z "},"ǔ":{"ha":760,"x_min":0,"x_max":0,"o":"m 294 796 l 467 796 l 619 1069 l 475 1069 l 381 900 l 286 1069 l 142 1069 z m 379 -14 b 683 263 571 -14 683 94 l 683 700 l 503 700 l 503 264 b 379 143 503 183 450 143 b 257 264 310 143 257 183 l 257 700 l 76 700 l 76 263 b 379 -14 76 94 189 -14 z "},"û":{"ha":760,"x_min":0,"x_max":0,"o":"m 142 796 l 286 796 l 381 965 l 475 796 l 619 796 l 467 1069 l 294 1069 z m 379 -14 b 683 263 571 -14 683 94 l 683 700 l 503 700 l 503 264 b 379 143 503 183 450 143 b 257 264 310 143 257 183 l 257 700 l 76 700 l 76 263 b 379 -14 76 94 189 -14 z "},"ü":{"ha":760,"x_min":0,"x_max":0,"o":"m 240 847 b 335 943 292 847 335 890 b 240 1038 335 994 292 1038 b 144 943 188 1038 144 994 b 240 847 144 890 188 847 z m 521 847 b 615 943 572 847 615 890 b 521 1038 615 994 572 1038 b 425 943 468 1038 425 994 b 521 847 425 890 468 847 z m 379 -14 b 683 263 571 -14 683 94 l 683 700 l 503 700 l 503 264 b 379 143 503 183 450 143 b 257 264 310 143 257 183 l 257 700 l 76 700 l 76 263 b 379 -14 76 94 189 -14 z "},"ǘ":{"ha":760,"x_min":0,"x_max":0,"o":"m 288 1144 l 444 1144 l 625 1307 l 468 1418 z m 240 847 b 335 943 292 847 335 890 b 240 1038 335 994 292 1038 b 144 943 188 1038 144 994 b 240 847 144 890 188 847 z m 521 847 b 615 943 572 847 615 890 b 521 1038 615 994 572 1038 b 425 943 468 1038 425 994 b 521 847 425 890 468 847 z m 379 -14 b 683 263 571 -14 683 94 l 683 700 l 503 700 l 503 264 b 379 143 503 183 450 143 b 257 264 310 143 257 183 l 257 700 l 76 700 l 76 263 b 379 -14 76 94 189 -14 z "},"ǚ":{"ha":760,"x_min":0,"x_max":0,"o":"m 294 1133 l 467 1133 l 619 1407 l 475 1407 l 381 1238 l 286 1407 l 142 1407 z m 240 847 b 335 943 292 847 335 890 b 240 1038 335 994 292 1038 b 144 943 188 1038 144 994 b 240 847 144 890 188 847 z m 521 847 b 615 943 572 847 615 890 b 521 1038 615 994 572 1038 b 425 943 468 1038 425 994 b 521 847 425 890 468 847 z m 379 -14 b 683 263 571 -14 683 94 l 683 700 l 503 700 l 503 264 b 379 143 503 183 450 143 b 257 264 310 143 257 183 l 257 700 l 76 700 l 76 263 b 379 -14 76 94 189 -14 z "},"ǜ":{"ha":760,"x_min":0,"x_max":0,"o":"m 301 1139 l 458 1139 l 278 1413 l 121 1301 z m 240 847 b 335 943 292 847 335 890 b 240 1038 335 994 292 1038 b 144 943 188 1038 144 994 b 240 847 144 890 188 847 z m 521 847 b 615 943 572 847 615 890 b 521 1038 615 994 572 1038 b 425 943 468 1038 425 994 b 521 847 425 890 468 847 z m 379 -14 b 683 263 571 -14 683 94 l 683 700 l 503 700 l 503 264 b 379 143 503 183 450 143 b 257 264 310 143 257 183 l 257 700 l 76 700 l 76 263 b 379 -14 76 94 189 -14 z "},"ǖ":{"ha":760,"x_min":0,"x_max":0,"o":"m 160 1169 l 601 1169 l 601 1314 l 160 1314 z m 240 847 b 335 943 292 847 335 890 b 240 1038 335 994 292 1038 b 144 943 188 1038 144 994 b 240 847 144 890 188 847 z m 521 847 b 615 943 572 847 615 890 b 521 1038 615 994 572 1038 b 425 943 468 1038 425 994 b 521 847 425 890 468 847 z m 379 -14 b 683 263 571 -14 683 94 l 683 700 l 503 700 l 503 264 b 379 143 503 183 450 143 b 257 264 310 143 257 183 l 257 700 l 76 700 l 76 263 b 379 -14 76 94 189 -14 z "},"ù":{"ha":760,"x_min":0,"x_max":0,"o":"m 301 801 l 458 801 l 278 1075 l 121 964 z m 379 -14 b 683 263 571 -14 683 94 l 683 700 l 503 700 l 503 264 b 379 143 503 183 450 143 b 257 264 310 143 257 183 l 257 700 l 76 700 l 76 263 b 379 -14 76 94 189 -14 z "},"ű":{"ha":760,"x_min":0,"x_max":0,"o":"m 264 801 l 444 964 l 288 1075 l 107 801 z m 569 801 l 750 964 l 593 1075 l 413 801 z m 379 -14 b 683 263 571 -14 683 94 l 683 700 l 503 700 l 503 264 b 379 143 503 183 450 143 b 257 264 310 143 257 183 l 257 700 l 76 700 l 76 263 b 379 -14 76 94 189 -14 z "},"ū":{"ha":760,"x_min":0,"x_max":0,"o":"m 160 832 l 601 832 l 601 976 l 160 976 z m 379 -14 b 683 263 571 -14 683 94 l 683 700 l 503 700 l 503 264 b 379 143 503 183 450 143 b 257 264 310 143 257 183 l 257 700 l 76 700 l 76 263 b 379 -14 76 94 189 -14 z "},"ų":{"ha":760,"x_min":0,"x_max":0,"o":"m 503 700 l 503 264 b 379 143 503 183 450 143 b 257 264 310 143 257 183 l 257 700 l 76 700 l 76 263 b 294 -6 76 121 156 22 b 211 -162 239 -46 211 -103 b 379 -325 211 -265 290 -325 b 543 -246 436 -325 497 -300 l 456 -147 b 379 -187 431 -176 403 -187 b 325 -128 349 -187 325 -168 b 424 -12 325 -83 353 -35 b 683 263 588 4 683 108 l 683 700 z "},"ů":{"ha":760,"x_min":0,"x_max":0,"o":"m 381 769 b 600 989 503 769 600 867 b 381 1208 600 1114 500 1208 b 161 989 256 1208 161 1108 b 381 769 161 864 261 769 z m 381 885 b 276 989 321 885 276 932 b 381 1093 276 1049 324 1093 b 485 989 440 1093 485 1046 b 381 885 485 929 438 885 z m 379 -14 b 683 263 571 -14 683 94 l 683 700 l 503 700 l 503 264 b 379 143 503 183 450 143 b 257 264 310 143 257 183 l 257 700 l 76 700 l 76 263 b 379 -14 76 94 189 -14 z "},"ũ":{"ha":760,"x_min":0,"x_max":0,"o":"m 207 778 b 279 871 219 842 243 871 b 492 786 342 871 378 786 b 685 972 594 786 656 854 l 558 1024 b 481 925 554 961 531 925 b 265 1015 403 925 375 1015 b 76 832 176 1015 107 956 z m 379 -14 b 683 263 571 -14 683 94 l 683 700 l 503 700 l 503 264 b 379 143 503 183 450 143 b 257 264 310 143 257 183 l 257 700 l 76 700 l 76 263 b 379 -14 76 94 189 -14 z "},"v":{"ha":719,"x_min":0,"x_max":0,"o":"m 360 -28 l 726 700 l 533 700 l 360 306 l 186 700 l -7 700 z "},"w":{"ha":1099,"x_min":0,"x_max":0,"o":"m 1106 700 l 910 700 l 758 335 l 618 700 l 481 700 l 340 335 l 189 700 l -7 700 l 326 -28 l 550 464 l 772 -28 z "},"ẃ":{"ha":1099,"x_min":0,"x_max":0,"o":"m 457 807 l 614 807 l 794 969 l 638 1081 z m 1106 700 l 910 700 l 758 335 l 618 700 l 481 700 l 340 335 l 189 700 l -7 700 l 326 -28 l 550 464 l 772 -28 z "},"ŵ":{"ha":1099,"x_min":0,"x_max":0,"o":"m 311 796 l 456 796 l 550 965 l 644 796 l 789 796 l 636 1069 l 464 1069 z m 1106 700 l 910 700 l 758 335 l 618 700 l 481 700 l 340 335 l 189 700 l -7 700 l 326 -28 l 550 464 l 772 -28 z "},"ẅ":{"ha":1099,"x_min":0,"x_max":0,"o":"m 410 847 b 504 943 461 847 504 890 b 410 1038 504 994 461 1038 b 314 943 357 1038 314 994 b 410 847 314 890 357 847 z m 690 847 b 785 943 742 847 785 890 b 690 1038 785 994 742 1038 b 594 943 638 1038 594 994 b 690 847 594 890 638 847 z m 1106 700 l 910 700 l 758 335 l 618 700 l 481 700 l 340 335 l 189 700 l -7 700 l 326 -28 l 550 464 l 772 -28 z "},"ẁ":{"ha":1099,"x_min":0,"x_max":0,"o":"m 471 801 l 628 801 l 447 1075 l 290 964 z m 1106 700 l 910 700 l 758 335 l 618 700 l 481 700 l 340 335 l 189 700 l -7 700 l 326 -28 l 550 464 l 772 -28 z "},"x":{"ha":807,"x_min":0,"x_max":0,"o":"m 0 0 l 218 0 l 403 228 l 588 0 l 804 0 l 510 350 l 804 700 l 589 700 l 401 471 l 217 700 l 0 700 l 294 350 z "},"y":{"ha":754,"x_min":0,"x_max":0,"o":"m 560 700 l 381 219 l 200 700 l 3 700 l 286 8 l 157 -319 l 343 -319 l 751 700 z "},"ý":{"ha":754,"x_min":0,"x_max":0,"o":"m 625 969 l 468 1081 l 288 807 l 444 807 z m 560 700 l 381 219 l 200 700 l 3 700 l 286 8 l 157 -319 l 343 -319 l 751 700 z "},"ŷ":{"ha":754,"x_min":0,"x_max":0,"o":"m 381 965 l 475 796 l 619 796 l 467 1069 l 294 1069 l 142 796 l 286 796 z m 560 700 l 381 219 l 200 700 l 3 700 l 286 8 l 157 -319 l 343 -319 l 751 700 z "},"ÿ":{"ha":754,"x_min":0,"x_max":0,"o":"m 240 847 b 335 943 292 847 335 890 b 240 1038 335 994 292 1038 b 144 943 188 1038 144 994 b 240 847 144 890 188 847 z m 521 847 b 615 943 572 847 615 890 b 521 1038 615 994 572 1038 b 425 943 468 1038 425 994 b 521 847 425 890 468 847 z m 560 700 l 381 219 l 200 700 l 3 700 l 286 8 l 157 -319 l 343 -319 l 751 700 z "},"ỳ":{"ha":754,"x_min":0,"x_max":0,"o":"m 458 801 l 278 1075 l 121 964 l 301 801 z m 560 700 l 381 219 l 200 700 l 3 700 l 286 8 l 157 -319 l 343 -319 l 751 700 z "},"z":{"ha":706,"x_min":0,"x_max":0,"o":"m 31 0 l 661 0 l 661 146 l 311 146 l 664 700 l 51 700 l 51 554 l 382 554 z "},"ź":{"ha":706,"x_min":0,"x_max":0,"o":"m 260 807 l 417 807 l 597 969 l 440 1081 z m 31 0 l 661 0 l 661 146 l 311 146 l 664 700 l 51 700 l 51 554 l 382 554 z "},"ž":{"ha":706,"x_min":0,"x_max":0,"o":"m 267 796 l 439 796 l 592 1069 l 447 1069 l 353 900 l 258 1069 l 114 1069 z m 31 0 l 661 0 l 661 146 l 311 146 l 664 700 l 51 700 l 51 554 l 382 554 z "},"ż":{"ha":706,"x_min":0,"x_max":0,"o":"m 353 842 b 447 938 404 842 447 885 b 353 1032 447 989 404 1032 b 257 938 300 1032 257 989 b 353 842 257 885 300 842 z m 31 0 l 661 0 l 661 146 l 311 146 l 664 700 l 51 700 l 51 554 l 382 554 z "},"⁄":{"ha":304,"x_min":0,"x_max":0,"o":"m -236 -278 l -36 -278 l 540 1111 l 340 1111 z "},"*":{"ha":622,"x_min":0,"x_max":0,"o":"m 232 669 l 311 846 l 389 669 l 479 721 l 363 878 l 557 857 l 557 958 l 363 938 l 479 1094 l 389 1146 l 311 969 l 232 1146 l 143 1094 l 258 938 l 65 958 l 65 857 l 258 878 l 143 721 z "},"\\":{"ha":738,"x_min":0,"x_max":0,"o":"m 547 -278 l 747 -278 l 171 1111 l -29 1111 z "},"•":{"ha":656,"x_min":0,"x_max":0,"o":"m 325 354 b 507 532 428 354 507 432 b 328 713 507 633 426 713 b 149 532 233 713 149 638 b 325 354 149 429 222 354 z "},":":{"ha":518,"x_min":0,"x_max":0,"o":"m 258 574 b 393 707 336 574 393 631 b 258 842 393 776 338 842 b 125 707 182 842 125 778 b 258 574 125 631 185 574 z m 258 -14 b 393 119 336 -14 393 43 b 258 254 393 189 338 254 b 125 119 182 254 125 190 b 258 -14 125 43 185 -14 z "},",":{"ha":311,"x_min":0,"x_max":0,"o":"m 78 -189 l 193 -189 l 290 224 l 78 224 z "},"…":{"ha":1435,"x_min":0,"x_max":0,"o":"m 210 -14 b 344 119 288 -14 344 43 b 210 254 344 189 289 254 b 76 119 133 254 76 190 b 210 -14 76 43 136 -14 z m 672 -14 b 807 119 750 -14 807 43 b 672 254 807 189 751 254 b 539 119 596 254 539 190 b 672 -14 539 43 599 -14 z m 1135 -14 b 1269 119 1213 -14 1269 43 b 1135 254 1269 189 1214 254 b 1001 119 1058 254 1001 190 b 1135 -14 1001 43 1061 -14 z "},"!":{"ha":510,"x_min":0,"x_max":0,"o":"m 157 343 l 351 343 l 351 1069 l 157 1069 z m 254 -14 b 389 119 332 -14 389 43 b 254 254 389 189 333 254 b 121 119 178 254 121 190 b 254 -14 121 43 181 -14 z "},"#":{"ha":993,"x_min":0,"x_max":0,"o":"m 199 0 l 347 0 l 376 215 l 544 215 l 515 0 l 664 0 l 693 215 l 835 215 l 851 351 l 713 351 l 747 601 l 888 601 l 906 738 l 765 738 l 796 953 l 647 953 l 617 738 l 449 738 l 479 953 l 331 953 l 300 738 l 161 738 l 142 601 l 282 601 l 247 351 l 107 351 l 88 215 l 228 215 z m 396 351 l 431 601 l 599 601 l 564 351 z "},".":{"ha":421,"x_min":0,"x_max":0,"o":"m 210 -14 b 344 119 288 -14 344 43 b 210 254 344 189 289 254 b 76 119 133 254 76 190 b 210 -14 76 43 136 -14 z "},"?":{"ha":719,"x_min":0,"x_max":0,"o":"m 267 342 l 447 342 l 447 422 b 639 822 447 582 639 601 b 357 1083 639 967 522 1083 b 76 768 182 1083 76 949 l 256 768 b 361 917 256 849 286 917 b 458 808 418 917 458 878 b 267 438 458 671 267 647 z m 357 -14 b 492 119 435 -14 492 43 b 357 254 492 189 436 254 b 224 119 281 254 224 190 b 357 -14 224 43 283 -14 z "},"\"":{"ha":746,"x_min":0,"x_max":0,"o":"m 131 588 l 297 588 l 297 1069 l 131 1069 z m 450 588 l 617 588 l 617 1069 l 450 1069 z "},"'":{"ha":426,"x_min":0,"x_max":0,"o":"m 131 588 l 297 588 l 297 1069 l 131 1069 z "},";":{"ha":511,"x_min":0,"x_max":0,"o":"m 244 574 b 379 707 322 574 379 631 b 244 842 379 776 324 842 b 111 707 168 842 111 778 b 244 574 111 631 171 574 z m 139 -189 l 282 -189 l 351 224 l 139 224 z "},"/":{"ha":738,"x_min":0,"x_max":0,"o":"m -29 -278 l 171 -278 l 747 1111 l 547 1111 z "},"_":{"ha":1017,"x_min":0,"x_max":0,"o":"m 121 0 l 896 0 l 896 160 l 121 160 z "},"{":{"ha":531,"x_min":0,"x_max":0,"o":"m 342 -168 l 457 -168 l 457 0 b 343 61 374 0 343 1 l 343 332 b 229 558 343 425 314 500 b 343 785 314 617 343 692 l 343 1008 b 457 1069 343 1064 369 1069 l 457 1238 l 342 1238 b 161 1022 236 1238 161 1140 l 161 803 b 57 622 161 697 147 664 l 57 494 b 161 314 160 447 161 425 l 161 47 b 342 -168 161 -67 233 -168 z "},"}":{"ha":490,"x_min":0,"x_max":0,"o":"m 149 -168 b 329 47 257 -168 329 -67 l 329 314 b 433 494 329 425 331 447 l 433 622 b 329 803 343 664 329 697 l 329 1022 b 149 1238 329 1140 254 1238 l 33 1238 l 33 1069 b 147 1008 121 1069 147 1064 l 147 785 b 261 558 147 692 176 617 b 147 332 176 500 147 425 l 147 61 b 33 0 147 1 117 0 l 33 -168 z "},"[":{"ha":579,"x_min":0,"x_max":0,"o":"m 97 -165 l 468 -165 l 468 0 l 276 0 l 272 1069 l 464 1069 l 464 1235 l 93 1235 z "},"]":{"ha":582,"x_min":0,"x_max":0,"o":"m 482 -165 l 486 1235 l 115 1235 l 115 1069 l 307 1069 l 303 0 l 111 0 l 111 -165 z "},"(":{"ha":553,"x_min":0,"x_max":0,"o":"m 493 -169 l 493 0 b 281 535 351 0 281 268 b 493 1069 281 803 351 1069 l 493 1239 b 97 535 228 1239 97 888 b 493 -169 97 183 229 -169 z "},")":{"ha":553,"x_min":0,"x_max":0,"o":"m 56 -169 b 451 535 319 -169 451 183 b 56 1239 451 888 321 1239 l 56 1069 b 268 535 197 1069 268 803 b 56 0 268 268 197 0 z "},"—":{"ha":1389,"x_min":0,"x_max":0,"o":"m 0 264 l 1389 264 l 1389 444 l 0 444 z "},"–":{"ha":989,"x_min":0,"x_max":0,"o":"m 121 264 l 868 264 l 868 444 l 121 444 z "},"-":{"ha":808,"x_min":0,"x_max":0,"o":"m 121 286 l 688 286 l 688 444 l 121 444 z "},"„":{"ha":658,"x_min":0,"x_max":0,"o":"m 78 -272 l 179 -272 l 332 140 l 119 140 z m 383 -272 l 485 -272 l 638 140 l 425 140 z "},"“":{"ha":651,"x_min":0,"x_max":0,"o":"m 179 657 l 294 657 l 253 1069 l 40 1069 z m 485 657 l 600 657 l 558 1069 l 346 1069 z "},"”":{"ha":683,"x_min":0,"x_max":0,"o":"m 65 657 l 181 657 l 319 1069 l 107 1069 z m 371 657 l 486 657 l 625 1069 l 413 1069 z "},"‘":{"ha":346,"x_min":0,"x_max":0,"o":"m 179 657 l 294 657 l 253 1069 l 40 1069 z "},"’":{"ha":378,"x_min":0,"x_max":0,"o":"m 181 657 l 319 1069 l 107 1069 l 65 657 z "},"‚":{"ha":353,"x_min":0,"x_max":0,"o":"m 78 -272 l 179 -272 l 332 140 l 119 140 z "}," ":{"ha":389,"x_min":0,"x_max":0,"o":""}," ":{"ha":125,"x_min":0,"x_max":0,"o":""},"\r":{"ha":125,"x_min":0,"x_max":0,"o":""},"":{"ha":125,"x_min":0,"x_max":0,"o":""},"$":{"ha":758,"x_min":0,"x_max":0,"o":"m 714 314 b 271 806 714 661 271 615 b 388 914 271 868 318 914 b 511 808 451 914 496 875 l 674 883 b 446 1078 640 985 556 1057 l 446 1175 l 265 1175 l 265 1063 b 92 800 163 1022 92 931 b 533 317 92 475 533 531 b 376 165 533 231 471 165 b 199 306 292 165 222 218 l 35 232 b 265 4 67 124 153 39 l 265 -106 l 446 -106 l 446 -8 b 714 314 601 18 714 140 z "},"+":{"ha":1004,"x_min":0,"x_max":0,"o":"m 421 179 l 582 179 l 582 456 l 879 456 l 879 614 l 582 614 l 582 892 l 421 892 l 421 614 l 125 614 l 125 456 l 421 456 z "},"−":{"ha":817,"x_min":0,"x_max":0,"o":"m 125 456 l 692 456 l 692 614 l 125 614 z "},"×":{"ha":894,"x_min":0,"x_max":0,"o":"m 238 214 l 446 424 l 642 228 l 757 342 l 561 538 l 769 747 l 658 860 l 449 650 l 253 846 l 139 732 l 335 535 l 125 326 z "},"÷":{"ha":817,"x_min":0,"x_max":0,"o":"m 408 676 b 543 810 486 676 543 733 b 408 944 543 879 488 944 b 275 810 332 944 275 881 b 408 676 275 733 335 676 z m 125 456 l 692 456 l 692 614 l 125 614 z m 408 121 b 543 254 486 121 543 178 b 408 389 543 324 488 389 b 275 254 332 389 275 325 b 408 121 275 178 335 121 z "},"=":{"ha":817,"x_min":0,"x_max":0,"o":"m 125 631 l 692 631 l 692 789 l 125 789 z m 125 283 l 692 283 l 692 442 l 125 442 z "},">":{"ha":778,"x_min":0,"x_max":0,"o":"m 121 189 l 657 474 l 657 597 l 121 858 l 121 679 l 421 532 l 121 374 z "},"<":{"ha":778,"x_min":0,"x_max":0,"o":"m 657 189 l 657 374 l 357 532 l 657 679 l 657 858 l 121 597 l 121 474 z "},"~":{"ha":867,"x_min":0,"x_max":0,"o":"m 197 388 b 353 496 229 478 274 546 b 579 397 486 413 522 397 b 822 629 674 397 742 461 l 674 692 b 560 561 650 607 611 561 b 290 682 479 561 382 682 b 44 451 204 682 121 606 z "},"%":{"ha":1040,"x_min":0,"x_max":0,"o":"m 250 639 b 465 861 371 639 465 740 b 250 1083 465 983 369 1083 b 35 861 129 1083 35 982 b 250 639 35 739 131 639 z m 83 -1 l 283 -1 l 954 1069 l 754 1069 z m 250 779 b 168 861 204 779 168 815 b 250 943 168 903 200 943 b 332 861 299 943 332 907 b 250 779 332 819 303 779 z m 790 -14 b 1006 208 913 -14 1006 90 b 790 431 1006 325 915 431 b 574 208 668 431 574 331 b 790 -14 574 86 668 -14 z m 790 126 b 707 208 743 126 707 161 b 790 290 707 251 739 290 b 872 208 836 290 872 254 b 790 126 872 163 836 126 z "},"‰":{"ha":1519,"x_min":0,"x_max":0,"o":"m 250 639 b 465 861 371 639 465 740 b 250 1083 465 983 369 1083 b 35 861 129 1083 35 982 b 250 639 35 739 131 639 z m 83 -1 l 283 -1 l 954 1069 l 754 1069 z m 250 779 b 168 861 204 779 168 815 b 250 943 168 903 200 943 b 332 861 299 943 332 907 b 250 779 332 819 303 779 z m 790 -14 b 1006 208 913 -14 1006 90 b 790 431 1006 325 915 431 b 574 208 668 431 574 331 b 790 -14 574 86 668 -14 z m 1269 -14 b 1485 208 1392 -14 1485 90 b 1269 431 1485 325 1394 431 b 1053 208 1147 431 1053 331 b 1269 -14 1053 86 1147 -14 z m 790 126 b 707 208 743 126 707 161 b 790 290 707 251 739 290 b 872 208 836 290 872 254 b 790 126 872 163 836 126 z m 1269 126 b 1186 208 1222 126 1186 161 b 1269 290 1186 251 1218 290 b 1351 208 1315 290 1351 254 b 1269 126 1351 163 1315 126 z "},"":{"ha":1183,"x_min":0,"x_max":0,"o":"m 592 0 b 1119 528 883 0 1119 238 b 592 1056 1119 819 883 1056 b 64 528 301 1056 64 819 b 592 0 64 238 301 0 z m 592 50 b 114 528 329 50 114 265 b 592 1006 114 792 329 1006 b 1069 528 856 1006 1069 792 b 592 50 1069 265 856 50 z m 868 301 b 886 310 875 301 882 304 b 886 344 896 319 896 335 l 703 528 l 886 711 b 886 747 896 721 896 738 b 851 747 876 757 861 757 l 650 546 b 650 510 640 536 640 521 l 851 310 b 868 301 856 304 863 301 z m 315 301 b 340 326 329 301 340 313 l 340 729 b 315 754 340 743 329 754 b 290 729 301 754 290 743 l 290 326 b 315 301 290 313 301 301 z m 592 301 b 617 326 606 301 617 313 l 617 729 b 592 754 617 743 606 754 b 567 729 578 754 567 743 l 567 326 b 592 301 567 313 578 301 z m 390 503 l 517 503 b 542 528 531 503 542 514 b 517 553 542 542 531 553 l 390 553 b 365 528 376 553 365 542 b 390 503 365 514 376 503 z "},"@":{"ha":1249,"x_min":0,"x_max":0,"o":"m 936 661 l 803 661 l 793 619 b 643 682 761 658 707 682 b 333 332 469 682 333 526 b 563 75 333 178 425 75 b 740 158 631 75 699 108 b 883 74 761 106 814 74 b 1185 453 1063 74 1185 226 b 649 946 1185 746 965 946 b 64 375 319 946 64 697 b 644 -190 64 44 304 -190 b 1082 -44 814 -190 965 -140 l 1001 64 b 654 -54 907 -15 794 -54 b 218 374 394 -54 218 118 b 647 811 218 631 396 811 b 1044 442 890 811 1044 668 b 908 207 1044 303 988 207 b 874 351 860 207 850 240 b 936 661 894 453 917 558 z m 743 415 b 583 206 739 326 696 206 b 486 328 522 206 486 253 b 643 553 486 453 556 553 b 743 415 711 553 744 507 z "},"&":{"ha":915,"x_min":0,"x_max":0,"o":"m 839 -4 l 953 111 l 807 260 l 956 410 l 842 525 l 693 375 l 342 732 b 314 800 324 750 314 774 b 407 896 314 853 356 896 b 500 814 451 896 500 865 b 483 767 500 794 493 779 l 599 656 b 658 814 636 697 658 753 b 410 1060 658 951 544 1060 b 156 803 271 1060 156 951 b 206 643 156 744 172 692 l 165 601 b 64 351 97 532 64 449 b 410 0 64 154 217 0 b 654 103 506 0 588 35 l 693 143 z m 410 164 b 224 351 306 164 224 246 b 318 525 224 426 260 467 l 579 260 b 542 222 567 246 554 233 b 410 164 504 183 460 164 z "},"©":{"ha":1178,"x_min":0,"x_max":0,"o":"m 589 0 b 1114 525 883 0 1114 231 b 589 1050 1114 819 883 1050 b 64 525 294 1050 64 819 b 589 0 64 231 294 0 z m 589 93 b 157 525 349 93 157 286 b 589 957 157 765 350 957 b 1021 525 829 957 1021 764 b 589 93 1021 285 828 93 z m 618 197 b 769 238 669 197 719 211 l 769 369 b 621 310 728 329 676 310 b 403 525 497 310 403 407 b 621 740 403 639 493 740 b 769 681 676 740 728 721 l 769 813 b 604 849 719 839 647 849 b 296 526 431 849 296 694 b 618 197 296 347 447 197 z "},"®":{"ha":886,"x_min":0,"x_max":0,"o":"m 443 325 b 590 356 496 325 546 335 b 711 436 638 375 676 401 b 793 556 746 471 772 511 b 822 704 813 603 822 651 b 793 853 822 757 813 806 b 711 972 772 897 746 938 b 590 1053 676 1007 638 1033 b 443 1083 546 1074 496 1083 b 296 1053 390 1083 340 1074 b 175 972 249 1033 210 1007 b 93 853 140 938 114 897 b 64 704 74 806 64 757 b 93 556 64 651 74 603 b 175 436 114 511 140 471 b 296 356 210 401 249 375 b 443 325 340 335 390 325 z m 443 408 b 326 431 401 408 364 415 b 235 494 292 446 261 468 b 171 589 207 522 185 551 b 147 704 154 624 147 663 b 171 819 147 746 154 783 b 235 914 185 856 207 886 b 326 978 261 940 292 963 b 443 1000 364 993 401 1000 b 558 978 485 1000 522 993 b 651 914 594 963 625 940 b 715 819 679 886 701 856 b 739 704 732 783 739 746 b 715 589 739 663 732 624 b 651 494 701 551 679 522 b 558 431 625 468 594 446 b 443 408 522 415 485 408 z m 325 503 l 392 503 l 392 667 l 439 667 l 521 503 l 599 503 l 511 671 b 572 713 536 678 557 692 b 596 782 588 733 596 756 b 563 864 596 814 585 842 b 481 899 540 888 513 899 l 325 899 z m 392 733 l 392 832 l 481 832 b 515 817 493 832 504 828 b 529 782 524 808 529 796 b 515 747 529 769 524 758 b 481 733 504 739 493 733 z "},"™":{"ha":889,"x_min":0,"x_max":0,"o":"m 381 635 l 476 635 l 476 826 l 574 699 l 672 828 l 672 635 l 768 635 l 768 1097 l 574 831 l 381 1097 z m 147 635 l 243 635 l 243 974 l 339 974 l 339 1069 l 51 1069 l 51 974 l 147 974 z "},"|":{"ha":476,"x_min":0,"x_max":0,"o":"m 154 -246 l 321 -246 l 321 1111 l 154 1111 z "},"^":{"ha":746,"x_min":0,"x_max":0,"o":"m 38 381 l 217 381 l 364 806 l 522 381 l 707 381 l 422 1069 l 299 1069 z "},"̈":{"ha":0,"x_min":0,"x_max":0,"o":"m -424 842 b -329 938 -372 842 -329 885 b -424 1032 -329 989 -372 1032 b -519 938 -476 1032 -519 989 b -424 842 -519 885 -476 842 z m -143 842 b -49 938 -92 842 -49 885 b -143 1032 -49 989 -92 1032 b -239 938 -196 1032 -239 989 b -143 842 -239 885 -196 842 z "},"̇":{"ha":0,"x_min":0,"x_max":0,"o":"m -143 842 b -49 938 -92 842 -49 885 b -143 1032 -49 989 -92 1032 b -239 938 -196 1032 -239 989 b -143 842 -239 885 -196 842 z "},"̀":{"ha":0,"x_min":0,"x_max":0,"o":"m -206 801 l -49 801 l -229 1075 l -386 964 z "},"́":{"ha":0,"x_min":0,"x_max":0,"o":"m -386 801 l -229 801 l -49 964 l -206 1075 z "},"̋":{"ha":0,"x_min":0,"x_max":0,"o":"m -535 801 l -354 964 l -511 1075 l -692 801 z m -229 801 l -49 964 l -206 1075 l -386 801 z "},"̂":{"ha":0,"x_min":0,"x_max":0,"o":"m -526 796 l -382 796 l -287 965 l -193 796 l -49 796 l -201 1069 l -374 1069 z "},"̌":{"ha":0,"x_min":0,"x_max":0,"o":"m -374 796 l -201 796 l -49 1069 l -193 1069 l -287 900 l -382 1069 l -526 1069 z "},"̆":{"ha":0,"x_min":0,"x_max":0,"o":"m -283 789 b -49 1035 -156 789 -49 900 l -49 1069 l -186 1069 l -186 1035 b -294 926 -186 975 -235 926 b -401 1035 -353 926 -401 975 l -401 1069 l -539 1069 l -539 1035 b -283 789 -539 894 -431 789 z "},"̊":{"ha":0,"x_min":0,"x_max":0,"o":"m -268 764 b -49 983 -146 764 -49 861 b -268 1203 -49 1108 -149 1203 b -487 983 -393 1203 -487 1103 b -268 764 -487 858 -387 764 z m -268 879 b -372 983 -328 879 -372 926 b -268 1088 -372 1043 -325 1088 b -164 983 -208 1088 -164 1040 b -268 879 -164 924 -211 879 z "},"̃":{"ha":0,"x_min":0,"x_max":0,"o":"m -526 778 b -454 871 -514 842 -490 871 b -242 786 -392 871 -356 786 b -49 972 -139 786 -78 854 l -175 1024 b -253 925 -179 961 -203 925 b -468 1015 -331 925 -358 1015 b -657 832 -557 1015 -626 956 z "},"̄":{"ha":0,"x_min":0,"x_max":0,"o":"m -490 826 l -49 826 l -49 971 l -490 971 z "},"̒":{"ha":0,"x_min":0,"x_max":0,"o":"m -254 813 l -42 813 l -42 1156 l -143 1156 z "},"̦":{"ha":0,"x_min":0,"x_max":0,"o":"m -275 -412 l -201 -412 l -49 -97 l -233 -97 z "},"̧":{"ha":0,"x_min":0,"x_max":0,"o":"m -183 -60 l -121 11 l -239 11 l -325 -108 l -261 -172 b -210 -150 -251 -160 -229 -150 b -149 -212 -181 -150 -149 -169 b -208 -274 -149 -251 -176 -274 b -286 -226 -235 -274 -265 -258 l -347 -308 b -207 -367 -311 -349 -258 -367 b -49 -212 -108 -367 -49 -299 b -183 -60 -49 -131 -103 -71 z "},"̨":{"ha":0,"x_min":0,"x_max":0,"o":"m -381 -162 b -212 -325 -381 -265 -301 -325 b -49 -246 -156 -325 -94 -300 l -136 -147 b -212 -187 -161 -176 -189 -187 b -267 -128 -243 -187 -267 -168 b -112 0 -267 -74 -224 -12 l -193 40 b -381 -162 -321 7 -381 -74 z "},"̵":{"ha":0,"x_min":0,"x_max":0,"o":"m -615 469 l -49 469 l -49 600 l -615 600 z "},"̶":{"ha":0,"x_min":0,"x_max":0,"o":"m -935 463 l -49 463 l -49 607 l -935 607 z "},"´":{"ha":435,"x_min":0,"x_max":0,"o":"m 49 801 l 206 801 l 386 964 l 229 1075 z "},"˘":{"ha":588,"x_min":0,"x_max":0,"o":"m 304 789 b 539 1035 432 789 539 900 l 539 1069 l 401 1069 l 401 1035 b 293 926 401 975 353 926 b 186 1035 235 926 186 975 l 186 1069 l 49 1069 l 49 1035 b 304 789 49 894 157 789 z "},"ˇ":{"ha":575,"x_min":0,"x_max":0,"o":"m 201 796 l 374 796 l 526 1069 l 382 1069 l 288 900 l 193 1069 l 49 1069 z "},"¸":{"ha":396,"x_min":0,"x_max":0,"o":"m 213 -60 l 275 11 l 157 11 l 71 -108 l 135 -172 b 186 -150 144 -160 167 -150 b 247 -212 215 -150 247 -169 b 188 -274 247 -251 219 -274 b 110 -226 161 -274 131 -258 l 49 -308 b 189 -367 85 -349 138 -367 b 347 -212 288 -367 347 -299 b 213 -60 347 -131 293 -71 z "},"ˆ":{"ha":575,"x_min":0,"x_max":0,"o":"m 49 796 l 193 796 l 288 965 l 382 796 l 526 796 l 374 1069 l 201 1069 z "},"¨":{"ha":568,"x_min":0,"x_max":0,"o":"m 144 842 b 239 938 196 842 239 885 b 144 1032 239 989 196 1032 b 49 938 92 1032 49 989 b 144 842 49 885 92 842 z m 425 842 b 519 938 476 842 519 885 b 425 1032 519 989 476 1032 b 329 938 372 1032 329 989 b 425 842 329 885 372 842 z "},"˙":{"ha":288,"x_min":0,"x_max":0,"o":"m 144 842 b 239 938 196 842 239 885 b 144 1032 239 989 196 1032 b 49 938 92 1032 49 989 b 144 842 49 885 92 842 z "},"`":{"ha":435,"x_min":0,"x_max":0,"o":"m 229 801 l 386 801 l 206 1075 l 49 964 z "},"˝":{"ha":740,"x_min":0,"x_max":0,"o":"m 206 801 l 386 964 l 229 1075 l 49 801 z m 511 801 l 692 964 l 535 1075 l 354 801 z "},"¯":{"ha":539,"x_min":0,"x_max":0,"o":"m 49 826 l 490 826 l 490 971 l 49 971 z "},"˛":{"ha":447,"x_min":0,"x_max":0,"o":"m 67 -162 b 235 -325 67 -265 146 -325 b 399 -246 292 -325 353 -300 l 311 -147 b 235 -187 286 -176 258 -187 b 181 -128 204 -187 181 -168 b 335 0 181 -74 224 -12 l 254 40 b 67 -162 126 7 67 -74 z "},"˚":{"ha":536,"x_min":0,"x_max":0,"o":"m 268 764 b 488 983 390 764 488 861 b 268 1203 488 1108 388 1203 b 49 983 143 1203 49 1103 b 268 764 49 858 149 764 z m 268 879 b 164 983 208 879 164 926 b 268 1088 164 1043 211 1088 b 372 983 328 1088 372 1040 b 268 879 372 924 325 879 z "},"˜":{"ha":706,"x_min":0,"x_max":0,"o":"m 179 778 b 251 871 192 842 215 871 b 464 786 314 871 350 786 b 657 972 567 786 628 854 l 531 1024 b 453 925 526 961 503 925 b 238 1015 375 925 347 1015 b 49 832 149 1015 79 956 z "},"\u0000":{"ha":28,"x_min":0,"x_max":0,"o":""}}}
